<?xml version="1.0" standalone="no"?>
<!DOCTYPE svg PUBLIC "-//W3C//DTD SVG 1.1//EN" "http://www.w3.org/Graphics/SVG/1.1/DTD/svg11.dtd">
<svg xmlns="http://www.w3.org/2000/svg">
<metadata>Generated by Fontastic.me</metadata>
<defs>
<font id="bridgeit" horiz-adv-x="512">
<font-face font-family="bridgeit" units-per-em="512" ascent="480" descent="-32"/>
<missing-glyph horiz-adv-x="512" />

<glyph unicode="&#57344;" d="M39 277l68 0 0-241-68 0z m418-63c10 10 16 21 16 33 0 38-55 69-125 71-2 9 7 18 15 52 10 44-8 91-20 111-12 21-56 22-48-9 7-30-5-122-33-126-28-4-101-69-101-69l0-241 78 0 0 0c25-12 60-20 99-20 75 0 135 27 135 60 0 8-4 16-10 22 6 9 10 17 10 26 0 10-4 20-11 29 7 8 11 18 11 28 0 12-6 23-16 33z"/>
<glyph unicode="&#57345;" d="M104 285l45 0 0-161-45 0z m278-42c7 7 11 14 11 22 0 25-37 46-83 47-1 6 5 12 10 35 7 30-6 61-14 74-8 14-37 14-32-6 5-20-3-81-22-84-18-3-67-46-67-46l0-161 52 0 0 0c17-8 40-13 66-13 50 0 90 18 90 40 0 5-2 10-6 15 4 5 6 11 6 17 0 7-3 13-7 19 4 6 7 12 7 19 0 8-4 15-11 22z m-133 222c119 0 216-97 216-217 0-119-97-217-216-217-120 0-217 98-217 217 0 120 97 217 217 217z m0 37c-141 0-254-114-254-254 0-140 113-253 254-253 140 0 253 113 253 253 0 140-113 254-253 254z"/>
<glyph unicode="&#57346;" d="M447 129l0 63-46 0 0-63-64 0 0-47 64 0 0-63 46 0 0 63 64 0 0 47z m-78 107l110 0 0-64 30 0 0 227-203 0-58 85c-1 1-1 1-2 2l-2 2 0-1c-5 4-10 6-17 6l-198 0c-15 0-28-12-28-28l0-39c0 0 0 0 0 0l0 0 0-311 305 0 0 57 63 0z"/>
<glyph unicode="&#57347;" d="M328 295c0 62-47 112-105 112-58 0-105-50-105-112 0-62 47-112 105-112 58 0 105 50 105 112z m-5-124c-23-32-59-53-100-53-40 0-76 21-99 53-72-19-123-103-124-166l446 0c-1 64-51 148-123 166z m189 264l-72 0 0 72-52 0 0-72-72 0 0-52 72 0 0-72 52 0 0 72 72 0z"/>
<glyph unicode="&#57349;" d="M256 480c123 0 224-101 224-224 0-123-101-224-224-224-123 0-224 101-224 224 0 123 101 224 224 224m0 32c-141 0-256-115-256-256 0-141 115-256 256-256 141 0 256 115 256 256 0 141-115 256-256 256z m178-176l-58 58-160-160-80 80-58-58 138-138 58 58 0 0z"/>
<glyph unicode="&#57350;" d="M508 512l-306 0 0-104-198 0 0-306 144 0 0-102 287 0 0 206 73 0 0 306z m-485-391l0 268 268 0 0-102-143 0 0-166z m466 104l-54 0 0 62-125 0 0 121-89 0 0 85 268 0z"/>
<glyph unicode="&#57351;" d="M243 256l102 92 0 68-178-160 178-160 0 68z"/>
<glyph unicode="&#57352;" d="M269 256l-102-92 0-68 178 160-178 160 0-68z"/>
<glyph unicode="&#57353;" d="M476 427l-85 0 0 85-61 0 0-85-85 0 0-61 85 0 0-84 61 0 0 84 85 0z m-337-376c0-28-23-51-52-51-28 0-51 23-51 51 0 28 23 51 51 51 29 0 52-23 52-51z m-93 176l-10 0 0-52 10 0c89 0 162-73 162-162l-1-12 44 0 10 1 0 10c0 119-97 215-215 215z m0 106l-10 0 0-54 10 0c149 0 271-120 271-268l-1-10 46 0 10 1 0 10c0 177-146 321-326 321z"/>
<glyph unicode="&#57355;" d="M482 353l0 21c0 24-19 43-43 43l-49 0c-24 0-43-19-43-43l0-21-23 0 0 21c0 24-20 43-43 43l-50 0c-23 0-43-19-43-43l0-21-27 0 0 21c0 24-19 43-42 43l-50 0c-24 0-43-19-43-43l0-21-26 0 0-258 512 0 0 258z"/>
<glyph unicode="&#57356;" d="M163 428c0 6 5 11 11 11l164 0c6 0 12-5 12-11l0-31 37 0 0 62c0 9-7 16-16 16l-230 0c-9 0-16-7-16-16l0-62 38 0z m333-52l-480 0c-9 0-16-8-16-16l0-307c0-9 7-16 16-16l480 0c9 0 16 7 16 16l0 307c0 8-7 16-16 16z"/>
<glyph unicode="&#57357;" d="M367 206l50 0 0-49-50 0z m-94 0l49 0 0-49-49 0z m-95 0l49 0 0-49-49 0z m-95 0l50 0 0-49-50 0z m190-87l49 0 0-50-49 0z m-95 0l49 0 0-50-49 0z m-95 0l50 0 0-50-50 0z m284 175l50 0 0-49-50 0z m-94 0l49 0 0-49-49 0z m-95 0l49 0 0-49-49 0z m-95 0l50 0 0-49-50 0z m284 88l50 0 0-49-50 0z m-94 0l49 0 0-49-49 0z m-95 0l49 0 0-49-49 0z m206-352l1 2z m0 2l0-2 1 2z m112 480l-480 0c-9 0-16-7-16-16l0-480c0-9 7-16 16-16l480 0c9 0 16 7 16 16l0 480c0 9-7 16-16 16z m-333-27l189 0 0-42-189 0z m317-338l0-115-95 0-1-2 0 2-352 0 0 387 448 0z"/>
<glyph unicode="&#57358;" d="M256 512c-141 0-256-115-256-256 0-59 20-112 53-155l0-1 0 0c47-61 120-100 203-100 141 0 256 115 256 256 0 141-115 256-256 256z m-192-256c0 106 86 192 192 192 41 0 79-13 110-35l-267-267c-22 31-35 69-35 110z m192-192c-42 0-82 14-113 37l268 268c23-31 37-71 37-113 0-106-86-192-192-192z"/>
<glyph unicode="&#57359;" d="M259 456l-256 53 0-454 256-53 250 56 0 452z m-224 14l206-44 0-388-206 43z m441-387l-198-45 0 388 198 44z"/>
<glyph unicode="&#57360;" d="M417 2l-325 0-92 234 512 0z m-417 311l238 0 0-42-238 0z m274 0l237 0 0-42-237 0z m-18 153c87 0 163-48 203-118l50 0c-44 96-141 162-253 162-113 0-209-66-253-162l50 0c40 70 116 118 203 118z"/>
<glyph unicode="&#57361;" d="M256 450c-142 0-257-76-257-171 0-41 22-79 59-108-2-30-13-72-58-96 0 0 96-48 168 44 28-6 57-10 88-10 142 0 257 76 257 170 0 95-115 171-257 171z"/>
<glyph unicode="&#57362;" d="M192 471c-113-9-201-76-194-148 3-38 30-63 52-78l7-4 0-9c1-23-4-52-24-78 5 0 10 0 15 0 32 3 58 20 78 51l6 9 10-2c24-4 49-4 73-2 5 0 10 1 15 2 65 8 121 36 152 72 20 23 30 48 28 75-7 72-104 122-218 112z m288-368c22 17 35 39 35 63 0 43-41 79-98 93-39-49-115-83-202-83-1-3-2-6-2-10 0-55 68-99 151-99 18 0 35 2 51 6 43-55 99-26 99-26-26 14-33 38-34 56z"/>
<glyph unicode="&#57364;" d="M235 256l163 147 0 109-284-256 284-256 0 109z"/>
<glyph unicode="&#57365;" d="M256 235l-147 163-109 0 256-284 256 284-109 0z"/>
<glyph unicode="&#57366;" d="M293 256l-163-147 0-109 284 256-284 256 0-109z"/>
<glyph unicode="&#57367;" d="M256 277l147-163 109 0-256 284-256-284 109 0z"/>
<glyph unicode="&#57368;" d="M134 290c1-1 1-3 0-4l-84-84c-1-1-3-1-4 0l-29 30c-1 1-1 3 0 3l84 85c1 0 2 0 3-1z m59-60c1-1 1-2 0-3l-84-84c-1-1-2-1-3 0l-30 30c-1 1-1 2 0 3l84 84c1 1 3 1 4 0z m62-61c1-1 1-3 0-4l-84-84c-1-1-3 0-4 1l-29 29c-1 1-1 3 0 4l84 84c1 1 2 1 3-1z m62-63c1-1 2-2 1-3l-84-84c-1-1-3-1-4 0l-29 29c-1 1-2 3-1 4l84 84c1 1 3 1 4 0z m126 388c-12 0-24-4-33-11 0-1-1-1-1-1l-102-101c-18-18-100 13-110 14-3 1-6 1-9 1-8 0-15-3-21-7 0 0 0 0-1 0l-1-2c-1-1-2-2-3-3l-25-24c-2-3-2-6 0-9l214-214c3-2 6-2 8 0l24 24c1 1 3 3 4 4l2 1c0 1 0 1 0 1 4 6 7 13 7 21 0 2-1 5-1 8l0 0c0 0-33 93-14 112l101 101c0 0 0 0 0 0 9 9 14 21 14 34 0 28-24 51-53 51z m0-80c-16 0-29 13-29 29 0 16 13 29 29 29 16 0 29-13 29-29 0-16-13-29-29-29z"/>
<glyph unicode="&#57369;" d="M163 261c0 0 0-1 0-2l-53-53c-1-1-2-1-3 0l-18 19c-1 0-1 1 0 2l53 53c0 1 1 0 2 0z m37-37c1-1 1-2 0-3l-53-53c0 0-1 0-2 1l-19 18c0 1 0 2 0 2l53 53c1 1 2 1 3 0z m39-39c1-1 1-2 0-2l-53-53c-1-1-2-1-2 0l-19 18c0 1-1 2 0 2l53 54c1 0 2 0 2-1z m40-40c0 0 0-1 0-2l-53-53c-1-1-2-1-3 0l-18 19c-1 0-1 1 0 2l53 53c0 1 1 1 2 0z m79 245c-8 0-15-3-21-7 0 0-1 0-1-1l-64-64c-11-11-63 9-70 10-1 0-3 0-5 0-5 0-10-1-13-4-1-1-1 0-1-1l-1 0c0-1-1-2-2-2l-15-16c-1-1-1-4 0-5l135-135c1-2 4-2 5 0l15 15c1 0 2 1 3 2l0 1c1 0 1 0 1 1 2 3 4 8 4 13 0 1 0 3-1 5l0 0c0 0-20 59-8 70l63 64c0 0 0 0 1 1 5 5 8 13 8 21 0 18-15 32-33 32z m0-51c-10 0-18 9-18 19 0 10 8 18 18 18 10 0 18-8 18-18 0-10-8-19-18-19z m-102 122c113 0 205-92 205-205 0-113-92-205-205-205-113 0-205 92-205 205 0 113 92 205 205 205z m0 35c-133 0-240-107-240-240 0-133 107-240 240-240 133 0 240 107 240 240 0 133-107 240-240 240z"/>
<glyph unicode="&#57370;" d="M497 490l-440 0c-8 0-15-7-15-15l0-12-28 0c-7 0-14-6-14-14 0-8 7-15 14-15l28 0 0-68-28 0c-7 0-14-6-14-14 0-8 7-14 14-14l28 0 0-67-28 0c-7 0-14-6-14-14 0-8 7-14 14-14l28 0 0-67-28 0c-7 0-14-6-14-14 0-8 7-14 14-14l28 0 0-60-28 0c-7 0-14-7-14-15 0-8 7-14 14-14l28 0 0-22c0-8 7-15 15-15l440 0c8 0 15 7 15 15l0 438c0 8-7 15-15 15z m-15-438l-355 0 0 408 355 0 0-408z m-45 278l-53 54-75-74-74 74-54-54 75-74-75-74 54-54 74 74 75-74 53 54-74 74z"/>
<glyph unicode="&#57371;" d="M337 443l-304 0 0-443 377 0 0 370z m33-403l-297 0 0 363 247 0 50-50 0-313 0 0z m-228 432l247 0 49-50 1-247 40-40 0 304-73 73-304 0 40-40z"/>
<glyph unicode="&#57372;" d="M391 335l-57 56-78-78-79 78-56-57 78-78-78-79 57-56 78 78 78-78 57 56-78 79z m88 144l0-446-446 0 0 446 446 0m16 32l-478 0c-8 0-16-8-16-16l0-478c0-8 8-16 16-16l478 0c8 0 16 8 16 16l0 478c0 8-8 16-16 16z"/>
<glyph unicode="&#57373;" d="M368 321l-47 47-65-65-65 65-47-47 65-65-65-65 47-47 65 65 65-65 47 47-65 65z m-112 131c108 0 196-88 196-196 0-108-88-196-196-196-108 0-196 88-196 196 0 108 88 196 196 196m0 28c-124 0-224-100-224-224 0-124 100-224 224-224 124 0 224 100 224 224 0 124-100 224-224 224z"/>
<glyph unicode="&#57374;" d="M455 230c0 0-1 0-1 0-4 19-20 33-40 33-1 0-2-1-4-1-7 22-29 38-53 38-7 0-13-1-19-3-11 10-25 17-41 17-2 0-5 0-7 0-7 44-45 78-91 78-50 0-91-41-91-92 0-3 0-5 0-8 0 0 0 0 0 0-21 0-37-15-41-34-36-2-65-32-65-69 0-38 31-69 69-69l384 0c30 0 55 25 55 55 0 31-25 55-55 55z"/>
<glyph unicode="&#57375;" d="M113 295l288 0 0-76-288 0z m366 184l0-446-446 0 0 446 446 0m16 32l-478 0c-8 0-16-8-16-16l0-478c0-8 8-16 16-16l478 0c8 0 16 8 16 16l0 478c0 8-8 16-16 16z"/>
<glyph unicode="&#57376;" d="M508 382l-20 7c1 9 0 17-1 24l20 9c3 2 4 6 3 9l-15 32c-1 3-5 5-8 3l-20-9c-5 6-11 12-17 17l7 20c2 3 0 7-3 8l-33 13c-4 1-7-1-9-4l-7-20c-8 0-16 0-24-1l-9 20c-1 3-5 4-8 3l-33-15c-3-1-4-5-3-8l9-20c-6-5-12-11-16-17l-20 7c-4 1-7 0-9-4l-12-32c-1-4 0-8 4-9l20-7c-1-8-1-16 0-24l-19-9c-3-1-5-5-3-8l14-32c2-4 5-5 9-3l19 8c5-6 11-12 18-17l-8-19c-1-3 1-7 4-8l33-13c3-1 7 1 8 4l8 19c8 0 16 0 23 1l9-20c2-3 6-4 9-3l32 15c3 1 5 5 3 8l-9 20c6 5 12 11 17 17l20-7c3-1 7 0 8 4l13 33c1 3-1 7-4 8z m-131-32c-27 10-40 40-30 67 10 27 40 40 67 30 27-10 41-40 30-67-10-27-40-40-67-30z m-43-147l-31 0c-3 12-8 23-13 33l22 22c4 4 4 10 0 14l-37 36c-3 4-9 4-13 0l-22-22c-11 6-21 10-33 13l0 32c0 5-4 9-9 9l-52 0c-5 0-9-4-9-9l0-32c-12-3-23-7-33-13l-22 22c-4 4-10 4-13 0l-37-36c-4-4-4-10 0-14l22-22c-5-10-10-21-13-33l-31 0c-6 0-10-4-10-9l0-52c0-5 4-9 10-9l31 0c3-11 7-22 13-32l-22-22c-4-4-4-10 0-13l36-37c4-4 10-4 14 0l22 22c10-6 21-11 33-14l0-31c0-5 4-9 9-9l52 0c5 0 9 4 9 9l0 31c12 3 23 8 33 13l22-22c4-4 10-4 13 0l37 37c4 3 4 9 0 13l-22 22c5 10 10 21 13 33l31 0c6 0 10 4 10 9l0 52c0 5-4 9-10 9z m-162-77c-23 0-43 19-43 43 0 23 20 42 43 42 23 0 42-19 42-42 0-24-19-43-42-43z"/>
<glyph unicode="&#57377;" d="M495 512l-478 0c-9 0-16-7-16-16l0-480c0-9 7-16 16-16l478 0c9 0 16 7 16 16l0 480c0 9-7 16-16 16z m-16-480l-446 0 0 387 446 0z m-319 278l261 0c3 0 6 3 6 7l0 32c0 4-3 7-6 7l-261 0z m0-222l261 0c3 0 6 3 6 7l0 32c0 4-3 7-6 7l-261 0z m0 111l261 0c3 0 6 3 6 7l0 32c0 4-3 7-6 7l-261 0z m-28 134c0 14-11 25-24 25-13 0-23-11-23-25 0-14 10-25 23-25 13 0 24 11 24 25z m0-111c0 14-11 25-24 25-13 0-23-11-23-25 0-14 10-25 23-25 13 0 24 11 24 25z m0-111c0 14-11 25-24 25-13 0-23-11-23-25 0-14 10-25 23-25 13 0 24 11 24 25z"/>
<glyph unicode="&#57378;" d="M5 216c23-90 113-143 202-120 35 9 65 29 87 56l182-109c13-8 28-5 34 5 6 10 0 24-13 32l-181 108c15 34 20 73 10 111-23 90-113 143-202 121-88-23-142-115-119-204z m288 75c19-72-24-144-95-162-70-19-142 24-160 95-18 72 24 144 95 163 70 18 142-25 160-96z m167 20l0 47-128 0c8-15 15-30 20-47z m-101-116l101 0 0 47-102 0c-1-14-3-28-7-42z m-220-15c0 14-9 25-22 29l0 33c13 4 22 15 22 28 0 14-9 25-22 29l0 33c13 4 22 15 22 29-18-5-34-14-46-26 2-1 4-3 6-3l0-33c-12-4-21-15-21-29 0-13 9-24 21-28l0-33c-7-2-13-7-17-13 12-17 29-29 48-36 5 5 9 12 9 20z m111 19c-4 5-9 8-14 10l0 33c12 4 21 15 21 28 0 14-9 25-21 29l0 33c0 0 1 1 2 1-12 12-26 21-42 26 1-13 9-23 21-27l0-33c-12-4-21-15-21-29 0-13 9-24 21-28l0-33c-12-4-21-15-21-29 0-7 3-14 7-19 19 8 36 22 47 38z m212 228l0 47-293 0 0-21c35 0 67-10 95-26l198 0z m-317 24l0 23-54 0 0-37c9 4 19 7 29 10 8 2 17 3 25 4z"/>
<glyph unicode="&#57379;" d="M256 510c-87 0-157-71-157-158 0-40 15-76 40-104 18-28 41-69 41-87l153 0c0 19 26 63 43 91 23 27 37 62 37 100 0 87-70 158-157 158z m-77-374l154 0 0-28-154 0z m0-50l154 0 0-28-154 0z m31-75l15 0 9-9 44 0 8 9 16 0 0 24-92 0z"/>
<glyph unicode="&#57380;" d="M513 170l-70 45 0 0-49 32 0 0-69 45 0 0-89 57c3 16 4 34 0 51-14 65-77 106-142 92-65-14-106-78-92-142 14-65 78-106 142-92 18 4 33 11 47 21l88-57-53-83 70-45 53 83 49-32-54-83 70-45 54 83 0 0 45 70 0 0z m-382 149c-31-6-61 13-67 44-7 31 13 61 43 67 31 7 61-13 68-43 6-31-13-61-44-68z"/>
<glyph unicode="&#57381;" d="M472 469l-12 0 0 27c0 8-7 15-15 15-8 0-14-7-14-15l0-27-68 0 0 27c0 8-6 15-14 15-8 0-15-7-15-15l0-27-66 0 0 27c0 8-6 15-14 15-8 0-15-7-15-15l0-27-66 0 0 27c0 8-6 15-14 15-8 0-15-7-15-15l0-27-60 0 0 27c0 8-6 15-14 15-8 0-14-7-14-15l0-27-22 0c-9 0-15-7-15-15l0-440c0-8 6-15 15-15l438 0c8 0 14 7 14 15l0 440c0 8-6 15-14 15z m-15-441l-409 0 0 356 409 0z"/>
<glyph unicode="&#57383;" d="M508 453c-196-33-250 55-252 58-2-3-56-91-252-58 0 0-37-279 252-452 289 173 252 452 252 452z m-216-42l0-86-17-128-39 0-16 128 0 86z m2-310l-76 0 0 75 76 0z"/>
<glyph unicode="&#57384;" d="M512 404l-108 108-148-148-148 148-108-108 148-148-148-148 108-108 148 148 148-148 108 108-148 148z"/>
<glyph unicode="&#57385;" d="M422 196l-43 187-39-57c-34 23-187 110-324-2 0 0 219-15 255-95l-39-56z m59 316l-313 0c-8 0-15-6-15-14l0-85 289 0c7 0 12-5 12-10l0-294c0-5-5-10-12-10l-236 0c-6 0-11 5-11 10l0 135-42 0 0-230c0-8 7-14 15-14l313 0c8 0 15 6 15 14l0 484c0 8-7 14-15 14z m-91-75l-126 0c-12 0-22 10-22 22 0 12 10 22 22 22l126 0c12 0 21-10 21-22 0-12-9-22-21-22z m-66-420c-15 0-28 13-28 28 0 16 13 28 28 28 16 0 28-12 28-28 0-15-12-28-28-28z"/>
<glyph unicode="&#57386;" d="M415 515l-318 0c-8 0-14-6-14-14l0-490c0-8 6-14 14-14l318 0c8 0 14 6 14 14l0 490c0 8-6 14-14 14z m-220-31l127 0c12 0 22-10 22-22 0-13-10-23-22-23l-127 0c-13 0-23 10-23 23 0 12 10 22 23 22z m61-470c-16 0-28 13-28 29 0 15 12 28 28 28 16 0 28-13 28-28 0-16-12-29-28-29z m131 93c0-5-5-10-12-10l-238 0c-7 0-12 5-12 10l0 297c0 6 5 11 12 11l238 0c7 0 12-5 12-11z"/>
<glyph unicode="&#57387;" d="M67 458l280 0c1 0 2 0 3-1 11 8 25 12 38 12 4 0 7 0 10-1l0 22c0 8-6 14-13 14l-356 0c-8 0-14-6-14-14l0-468c0-8 6-14 14-14l355 0c8 0 14 6 14 14l0 1 0 0 0 81-159 0 0 0-172 0c-6 0-11 5-11 10l0 334c0 6 5 10 11 10z m140-379c15 0 27-12 27-27 0-15-12-27-27-27-15 0-27 12-27 27 0 15 12 27 27 27z m283 322c4 1 7 5 7 10l0 9c0 5-3 10-7 10l-208 0c-4 0-7-5-7-10l0-9c0-6 3-10 7-10l1 0c1-58 20-104 52-125-30-20-48-62-51-118l-2 0c-4 0-7-4-7-9l0-10c0-5 3-9 7-9l208 0c4 0 7 4 7 9l0 10c0 5-3 9-7 9-3 57-20 98-49 118 31 21 48 65 49 125z m-73-133c32-11 51-52 54-110l-23 0c0 1-1 3-2 4l-20 24c-3 4-8 11-12 14l-20 25c-3 4-8 4-12 0l-20-25c-3-3-8-10-12-14l-20-24c0-1-1-3-1-4l-26 0c3 57 24 98 56 109l26 9-26 9c-33 11-55 53-57 112l170 0c-2-59-22-101-55-112l-26-8z m-15-31c0-2-2-4-5-4-2 0-4 2-4 4 0 3 2 5 4 5 3 0 5-2 5-5z m-15 12c0-3-2-5-5-5-2 0-4 2-4 5 0 2 2 4 4 4 3 0 5-2 5-4z m5 18c0-3-2-5-4-5-3 0-5 2-5 5 0 2 2 4 5 4 2 0 4-2 4-4z m46 81l-101 0c0-26 24-48 50-48 27 0 51 22 51 48z"/>
<glyph unicode="&#57388;" d="M502 323l-104 103c-13 14-36 14-50 0l-170-170c-14-14-14-37 0-50l76-76 105 0 24 24 119 118c13 14 13 37 0 51z m-119-135l-39-40-1 0-73 1-84 83 91 90 120-120z m-331 270l280 0c1 0 2 0 3-1 11 8 24 12 38 12 4 0 7 0 10-1l0 22c0 8-6 14-14 14l-355 0c-8 0-14-6-14-14l0-468c0-8 6-14 14-14l355 0c8 0 14 6 14 14l0 1 0 0 0 81-159 0 0 0-172 0c-6 0-11 5-11 10l0 334c0 6 5 10 11 10z m140-379c15 0 27-12 27-27 0-15-12-27-27-27-15 0-27 12-27 27 0 15 12 27 27 27z"/>
<glyph unicode="&#57389;" d="M478 434l-84 85-361 0 0-526 446 0z m-86 42l49-49-12 30z m-327-451l0 462 295 0 0-92 86 0 1-370-382 0z"/>
<glyph unicode="&#57390;" d="M348 292l0 212-186 0 0-212-162 0 63-69 193-215 193 215 63 69z"/>
<glyph unicode="&#57391;" d="M301 273l0 103-91 0 0-103-78 0 30-33 94-104 94 104 30 33z m-45 239c-81 0-153-37-201-95l-22 10 0 0-14 6c-11 5-19 0-18-12l4-45c1-12 3-31 4-43 0 0 0 0 0-1l5-45c1-12 9-16 19-9l24 17 13 9c10 7 26 19 36 25l36 27c10 6 9 16-2 21l-17 8-15 7c37 39 90 64 148 64 77 0 144-43 178-106l46 32c-45 78-128 130-224 130z m3-512c80 0 151 37 199 94l21-10 0 0 14-6c11-5 19 1 18 12l-4 45c-1 12-3 30-4 42 0 0 0 1 0 1l-4 44c-1 12-10 16-20 10l-23-17-13-9c-10-7-26-18-35-25l-37-26c-10-7-9-17 2-22l17-8 0 0 15-6c-37-39-89-63-146-63-76 0-143 42-177 104l-46-32c45-76 128-128 223-128z"/>
<glyph unicode="&#57392;" d="M256 90l-136 151-45 0 181-200 181 200-45 0z m65 274l0 149-131 0 0-150-115 0 45-48 136-152 136 152 45 49z m-321-323l512 0 0-42-512 0z"/>
<glyph unicode="&#57393;" d="M0 77l512 0 0-42-512 0z m372 26l140 141-50 51-141-141-70 70-51-51 121-121 0 0 23 23 28 28z m-121 167l70-71 33 33 14 15 51 57-134 0 0 173-152 0 0-173-133 0 52-57 158-175 22 24-77 77z"/>
<glyph unicode="&#57394;" d="M256 473c120 0 217-97 217-217 0-120-97-217-217-217-119 0-217 97-217 217 0 120 98 217 217 217z m0 37c-140 0-254-114-254-254 0-140 114-254 254-254 140 0 254 114 254 254 0 140-114 254-254 254z m10-144c0-6-4-10-10-10-6 0-10 4-10 10l0 40c0 6 4 10 10 10 6 0 10-4 10-10l0-40z m0-260c0-6-4-10-10-10-6 0-10 4-10 10l0 40c0 6 4 10 10 10 6 0 10-4 10-10l0-40z m100 140c-6 0-10 4-10 10 0 6 4 10 10 10l40 0c6 0 10-4 10-10 0-6-4-10-10-10z m-100-140c0-6-4-10-10-10-6 0-10 4-10 10l0 40c0 6 4 10 10 10 6 0 10-4 10-10l0-40z m100 140c-6 0-10 4-10 10 0 6 4 10 10 10l40 0c6 0 10-4 10-10 0-6-4-10-10-10z m-48 101c-3-5-9-7-14-4-4 3-6 9-3 14l19 35c3 5 9 6 14 4 5-3 6-9 4-14z m-126-227c-3-5-9-7-14-4-5 3-7 9-4 14l20 35c2 5 8 6 13 4 5-3 7-9 4-14z m155 74c-5 2-7 9-4 13 3 5 9 7 14 4l35-19c5-3 6-9 4-14-3-5-9-7-14-4z m-29 153c-3-5-9-7-14-4-4 3-6 9-3 14l19 35c3 5 9 6 14 4 5-3 6-9 4-14z m-126-227c-3-5-9-7-14-4-5 3-7 9-4 14l20 35c2 5 8 6 13 4 5-3 7-9 4-14z m155 74c-5 2-7 9-4 13 3 5 9 7 14 4l35-19c5-3 6-9 4-14-3-5-9-7-14-4z m7 111c-4-3-10-1-13 3-3 5-2 11 3 14l34 21c5 3 11 2 14-3 3-5 1-11-3-14z m-49-148c-3 5-1 11 3 14 5 3 11 2 14-3l21-34c3-5 2-11-3-14-5-3-11-2-14 3z m49 148c-4-3-10-1-13 3-3 5-2 11 3 14l34 21c5 3 11 2 14-3 3-5 1-11-3-14z m-49-148c-3 5-1 11 3 14 5 3 11 2 14-3l21-34c3-5 2-11-3-14-5-3-11-2-14 3z"/>
<glyph unicode="&#57395;" d="M124 229l105 0 0-105c0-15 12-27 27-27 15 0 27 12 27 27l0 105 105 0c15 0 27 12 27 27 0 15-12 27-27 27l-105 0 0 105c0 15-12 27-27 27-15 0-27-12-27-27l0-105-105 0c-15 0-27-12-27-27 0-15 12-27 27-27z m250-111l-236 0 118-118z m0 276l-236 0 118 118z m-256-256l0 236-118-118z m276 0l0 236 118-118z"/>
<glyph unicode="&#57396;" d="M256 512l-242 0 0-512 256 0 0 512z m-210-480l0 423 192 0 0-423z m29 359l130 0 0-36-130 0z m0-78l130 0 0-36-130 0z m0-78l130 0 0-36-130 0z m0-78l130 0 0-36-130 0z m259 263l0-328 164 164z"/>
<glyph unicode="&#57397;" d="M413 169l-157 174-157-174z"/>
<glyph unicode="&#57398;" d="M413 343l-157-174-157 174z"/>
<glyph unicode="&#57400;" d="M271 463c0 6-4 11-10 11l-87 0c-5 0-10-5-10-11l0-206 107 106z m57-414c0-6 4-11 9-11l88 0c5 0 9 5 9 11l0 194-106-107z m-327 40l107 111 0 263c0 6-5 11-10 11l-87 0c-6 0-10-5-10-11l0-374z m433 225c3-2 3-7 0-9l-247-247c-2-3-6-3-9 0l-75 75c-3 3-3 7 0 10l246 246c3 3 7 3 10 0z m37 27c-2-2-7-2-9 0l-76 76c-2 2-2 7 0 9l38 38c3 3 7 3 10 0l75-75c3-3 3-7 0-10z m-391-234c1 3 3 4 6 1l59-64c2-2 2-5-1-6l-60 1c-3-1-5 1-4 4z"/>
<glyph unicode="&#57401;" d="M308 294l1 21c1 7 2 14 5 21l-117-83-197 140 0-230c0-3 3-6 7-6l282 0 0 106c0 13 8 25 19 31z m67 145l-358 0 180-128z m133-172l-15 0 0 0-23 0 0 0-107 0 0 31c0 0 0 1 0 1 1 30 25 54 53 54l0 26c-41 0-74-33-76-74 0 0 0-1 0-1l0-38-15 0c-2 0-4-1-4-3l0-186c0-2 2-4 4-4l183 0c2 0 4 2 4 4l0 186c0 2-2 4-4 4z m-53-159l-78 0 14 68c-8 7-14 18-14 30 0 21 18 38 39 38 22 0 39-17 39-38 0-12-5-23-14-30z m-2 229l19 18c-14 15-34 24-56 24l0-26c15 0 28-6 37-16z"/>
<glyph unicode="&#57402;" d="M308 294l1 21c1 7 2 14 5 21l-117-83-197 140 0-230c0-3 3-6 7-6l282 0 0 106c0 13 8 25 19 31z m67 145l-358 0 180-128z m133-172l-15 0 0 37c0 0 0 1 0 1-2 41-35 74-77 74-41 0-74-33-76-74 0 0 0-1 0-1l0-38-15 0c-2 0-4-1-4-3l0-186c0-2 1-4 4-4l183 0c2 0 4 2 4 4l0 186c0 2-2 4-4 4z m-53-159l-78 0 14 68c-8 7-14 18-14 30 0 21 18 39 39 39 22 0 39-18 39-39 0-12-5-23-14-30z m15 159l-107 0 0 31c0 0 0 0 0 1 1 30 25 54 53 54 29 0 53-24 54-54 0-1 0-1 0-1z"/>
<glyph unicode="&#57403;" d="M497 315l-154 154c-21 20-54 20-74 0l-254-254c-20-20-20-53 0-74l113-113 156 0 213 213c20 20 20 53 0 74z m-345-258l-125 123 135 134 180-178-80-80z"/>
<glyph unicode="&#57404;" d="M247 170c46 0 83 38 83 84 0 46-37 83-83 83-26 0-49-12-64-30l64-53-77-32c12-30 42-52 77-52z m-111 101l-58-8-59-8 7 37 7 36 52-28z m111 232c-77 0-146-35-192-90l29-24 3 2 0 0c39 45 96 75 160 75 117 0 212-95 212-212 0-118-95-213-212-213-89 0-165 55-197 133l-34-14c37-91 126-156 231-156 138 0 249 112 249 250 0 137-111 249-249 249z m-88-176c21 25 52 41 88 41 63 0 115-51 115-114 0-64-52-115-115-115-48 0-89 29-106 72l-62-25c27-66 92-113 168-113 100 0 181 81 181 181 0 99-81 181-181 181-56 0-105-26-138-65l-1 0 0 0z"/>
<glyph unicode="&#57405;" d="M400 295l-106 0 0 106-76 0 0-106-106 0 0-76 106 0 0-106 76 0 0 106 106 0z m79 184l0-446-446 0 0 446 446 0m16 32l-478 0c-8 0-16-8-16-16l0-478c0-8 8-16 16-16l478 0c8 0 16 8 16 16l0 478c0 8-7 16-16 16z"/>
<glyph unicode="&#57406;" d="M344 260l-104 0 0-92 104 0 0-81 34 31 106 96-106 96-34 30z m-316-253l423 0 0 72-45 0 0-27-333 0 0 408 277 0 56-56 0-52 45 0 0 71-82 82-341 0z"/>
<glyph unicode="&#57407;" d="M316 298l-30 27 0-33 88-79-88-79 0-34 31 28 94 85z m102 0l-31 27 0-33 88-79-88-79 0-34 31 28 94 85z m-233-45l-93 0 0-81 93 0 0-72 31 28 94 85-94 85-31 27z m-185-253l436 0 0 74-47 0 1-27-343 0 0 418 285 0 57-57 0-54 47 0 0 73-85 85-351 0z"/>
<glyph unicode="&#57408;" d="M258 481c-54 0-104-19-142-50-15-11-28-24-39-38l-20 9 0 0-12 6c-10 5-17 0-16-11l4-40c1-10 2-27 3-38 0 0 0 0 0-1l4-40c1-10 9-14 18-8l21 15 11 9c9 6 23 16 32 22l33 23c8 6 8 15-2 19l-16 7-9 5c25 28 59 48 98 56 3 0 6 1 9 1 1 0 2 0 3 0 6 1 12 1 18 1 31 0 61-8 87-22 52-30 87-86 87-150 0-95-77-173-172-173-84 0-154 60-170 140l-52-8c19-105 111-184 222-184 124 0 225 101 225 225 0 124-101 225-225 225z m-31-334c0 12 9 21 21 21 12 0 20-9 20-21 0-12-8-22-20-22-12 0-21 10-21 22z m9 49l-5 167 33 0-5-167z"/>
<glyph unicode="&#57409;" d="M256 512l79-169 177-27-128-131 30-185-158 87-158-87 30 185-128 131 177 27z"/>
<glyph unicode="&#57410;" d="M488 448l-208 0 23-34 175 0 0-31 34 0 0 40c0 14-11 25-24 25z m-342-75c-47 0-86-38-86-86 0-47 39-86 86-86 48 0 86 39 86 86 0 48-38 86-86 86z m102 64c0 0-1 1-1 1l-2 2 0-1c-5 4-10 7-17 7l-200 0c-15 0-28-13-28-28l0-40c0 0 0 0 0 0l0 0 0-314 512 0 0 287-205 0z m104-332c1-6-1-12-5-15-3-4-7-5-12-5-7 0-13 2-18 7l-100 100c-20-15-45-24-71-24-66 0-119 54-119 119 0 66 53 119 119 119 66 0 119-53 119-119 0-24-7-47-21-67l101-100c4-4 7-10 7-15z"/>
<glyph unicode="&#57411;" d="M512 488l-512 0 56-74c-26-18-43-47-43-81 0-52 43-95 96-95 23 0 45 8 61 23l47-63c4-51 9-128 9-174l61 0c0 47 5 124 9 176z m-403-222c-38 0-68 30-68 67 0 25 13 46 32 58l80-108c-12-11-27-17-44-17z"/>
<glyph unicode="&#57412;" d="M210 438l0-189c0 0-16-10-43-20l1-19c92 0 152 31 152 31l0 173c-14 12-68 20-110 24z m-188 74c-12 0-22-10-22-22l0-468c0-12 10-22 22-22 13 0 23 10 23 22l0 205c40 2 73 10 97 18 27 10 42 20 42 20l0 213c-22 26-162 34-162 34z m481-179c-24-2-79 20-79 20l0 0c-16 7-50 12-78 14l0-146c0 0-12-7-33-15l1-14c71 0 117 24 117 24 38 14 81 119 81 119-3-1-6-2-9-2z"/>
<glyph unicode="&#57413;" d="M303 413l174 0 0-31 33 0 0 40c0 14-11 24-24 24l-206 0z m-301-347l508 0 0 284-203 0-59 85c0 1-1 1-1 2l-2 2 0-1c-5 4-10 6-17 6l-198 0c-16 0-28-12-28-28l0-39c0 0 0 0 0 0l0 0z"/>
<glyph unicode="&#57414;" d="M68 338l89 0 0-45-89 0z m113 0l263 0 0-45-263 0z m263-272l-376 0 0 140 376 0 0-140z m-346 26l316 0 0 89-316 0z m398 420l-480 0c-9 0-16-7-16-16l0-480c0-9 7-16 16-16l480 0c9 0 16 7 16 16l0 480c0 9-7 16-16 16z m-16-480l-448 0 0 387 448 0z m-412 345l142 0 0-16-142 0z m0-132l142 0 0-15-142 0z"/>
<glyph unicode="&#57415;" d="M340 490c-83 46-187 17-233-65-30-54-28-116-1-166 0-1 0-2 1-3l71-121c2-3 5-8 7-12l71-121c2-3 5-3 7 1l69 122c2 4 5 10 7 13l69 123c0 0 24 38 18 97 0 1 0 3 0 4 0 2-1 3-1 5 0 0 0 0 0-1-8 51-37 97-85 124z m41-219c-39-69-126-94-195-55-69 39-93 126-55 195 39 68 126 93 195 54 69-38 93-125 55-194z m-136 45l119 0c6 0 12 6 12 13 0 7-6 12-12 12l-107 0 0 109c0 6-5 12-12 12-7 0-13-6-13-12l0-119c0-1 1-1 1-1 0-1-1-1-1-1 0-7 6-13 13-13z"/>
<glyph unicode="&#57416;" d="M18 367l226 0c7 0 12 6 12 12l0 95c0 7-5 12-12 12l-226 0z m0-170l464 0c7 0 12 5 12 11l0 96c0 6-5 12-12 12l-464 0z m0-171l345 0c7 0 12 5 12 12l0 95c0 6-5 12-12 12l-345 0z"/>
<glyph unicode="&#57417;" d="M145 18l0 226c0 7-6 12-12 12l-95 0c-7 0-12-5-12-12l0-226z m171 0l0 464c0 7-6 12-12 12l-96 0c-6 0-12-5-12-12l0-464 120 0z m170 0l0 345c0 7-5 12-12 12l-95 0c-6 0-12-5-12-12l0-345z"/>
<glyph unicode="&#57418;" d="M280 1c85 8 158 58 198 130l-198 88z m-279 255c0-132 99-240 226-254l0 508c-127-14-226-122-226-254z m279 255l0-234 219-97c7 24 12 50 12 76 0 133-101 243-231 255z"/>
<glyph unicode="&#57419;" d="M513 204c0-6-5-11-12-11l-490 0c-7 0-12 5-12 11l0 103c0 7 5 12 12 12l490 0c7 0 12-5 12-12z m0-193c0-6-5-11-12-11l-490 0c-7 0-12 5-12 11l0 103c0 7 5 12 12 12l490 0c7 0 12-5 12-12z m0 386c0-6-5-11-12-11l-490 0c-7 0-12 5-12 11l0 104c0 6 5 11 12 11l490 0c7 0 12-5 12-11z"/>
<glyph unicode="&#57420;" d="M504 456l-496 0c-4 0-8-4-8-8l0-302c0-5 4-8 8-8l229 0 0-45-79 0c-4 0-8-3-8-8l0-21c0-4 4-8 8-8l196 0c4 0 8 4 8 8l0 21c0 5-4 8-8 8l-79 0 0 45 229 0c4 0 8 3 8 8l0 302c0 4-4 8-8 8z m-31-275c0-3-3-6-7-6l-420 0c-4 0-7 3-7 6l0 232c0 4 3 6 7 6l420 0c4 0 7-2 7-6l0-232z"/>
<glyph unicode="&#57421;" d="M256 509c-140 0-253-114-253-253 0-139 113-253 253-253 139 0 253 113 253 253 0 139-114 253-253 253z m29-409l-65 0 0 64 65 0z m38 154c-18-13-37-24-41-49l0-16-57 0 0 19c3 37 20 53 37 66 16 13 31 23 31 45 0 26-14 38-36 38-30 0-43-25-43-54l-62 0c1 60 41 103 102 103 79 0 104-48 104-81 0-40-17-57-35-71z"/>
<glyph unicode="&#57422;" d="M258 502c-59 0-113-21-155-55-16-12-30-26-43-41l-21 10 0 0-14 6c-10 5-18 0-17-12l4-44c1-11 3-29 4-41 0 0 0-1 0-1l4-43c1-12 10-16 19-9l23 16 13 9c10 7 25 18 34 24l36 26c10 7 9 16-2 21l-17 8-10 4c28 31 65 53 107 61 4 1 7 1 10 2 1 0 2 0 3 0 7 1 13 1 20 1 34 0 67-9 95-24 57-33 95-94 95-164 0-104-84-189-188-189-92 0-168 66-185 153l-57-9c21-114 121-201 242-201 136 0 246 110 246 246 0 136-110 246-246 246z m-2-262l142 0c8 0 14 7 14 15 0 8-6 15-14 15l-127 0 0 129c0 8-7 15-15 15-8 0-15-7-15-15l0-142c0 0 0 0 1-1-1 0-1-1-1-1 0-8 7-15 15-15z"/>
<glyph unicode="&#57423;" d="M45 299l0-277 158 0 0 188 108 0 0-188 158 0 0 277-212 108z m375 107l0 84-69 0 0-49-94 48-257-130 0-34 257 130 255-130 0 34z"/>
<glyph unicode="&#57424;" d="M380 260l104 0 0-92-104 0 0-81-35 31-105 96 105 96 35 30z m-352-253l423 0 0 72-45 0 0-27-333 0 0 408 277 0 56-56 0-52 45 0 0 71-82 82-341 0z"/>
<glyph unicode="&#57425;" d="M220 313l69 0 0-209-69 0z m0 100l69 0 0-58-69 0z m36 60c120 0 217-97 217-217 0-120-97-217-217-217-119 0-217 97-217 217 0 120 98 217 217 217z m0 37c-140 0-254-114-254-254 0-140 114-254 254-254 140 0 254 114 254 254 0 140-114 254-254 254z"/>
<glyph unicode="&#57426;" d="M256 509c-139 0-253-114-253-253 0-140 114-253 253-253 139 0 253 113 253 253 0 139-114 253-253 253z m30-401l-59 0 0 217 59 0z m0 300l0-49-60 0 0 56 60 0z"/>
<glyph unicode="&#57427;" d="M250 228l182 0 0-97-51 0 0-130 130 0 0 130-44 0 0 132-35 0 0 0-163 0 0 0 0 0 0 118 51 0 0 130-130 0 0-130 44 0 0-118-185 0 0-1-1 0 0-130-47 0 0-130 130 0 0 130-48 0 0 96z"/>
<glyph unicode="&#57428;" d="M329 71l158 0c7 0 13 6 13 12l0 417c0 6-6 12-12 12l-317 0c-7 0-12-6-12-12l0-66 36 0 0 29c0 4 5 8 10 8l249 0c5 0 10-4 10-8l0-298c0-5-5-9-10-9l-125 0 1-22c13 0 24-11 24-24 0-13-11-24-24-24z m-60 330l-246 0c-6 0-11-5-11-11l0-379c0-6 5-11 11-11l246 0c6 0 12 5 12 11l0 379c0 6-6 11-12 11z m-170-24l98 0c10 0 18-8 18-17 0-10-8-17-18-17l-98 0c-10 0-17 7-17 17 0 9 7 17 17 17z m47-364c-12 0-22 10-22 22 0 13 10 22 22 22 12 0 22-9 22-22 0-12-10-22-22-22z m102 73c0-5-4-8-9-8l-185 0c-5 0-9 3-9 8l0 229c0 5 4 8 9 8l185 0c5 0 9-3 9-8l0-229z"/>
<glyph unicode="&#57429;" d="M498 308l-47 0c-4 17-11 33-20 48l33 34c6 5 6 14 0 20l-54 54c-5 6-14 6-20 0l-33-33c-15 8-32 15-49 20l0 47c0 7-6 14-14 14l-77 0c-8 0-14-7-14-14l0-48c-17-4-33-11-48-19l-33 33c-6 6-15 6-20 0l-54-54c-6-6-6-15 0-20l33-34c-9-15-16-31-20-48l-47 0c-8 0-14-6-14-14l0-77c0-8 6-14 14-14l47 0c4-17 11-33 19-48l-33-33c-5-5-5-14 0-20l55-54c5-6 14-6 20 0l32 33c16-9 32-16 50-21l0-46c0-7 6-14 14-14l76 0c8 0 15 7 15 14l0 46c17 5 33 11 48 20l33-33c6-6 15-6 20 0l54 54c6 5 6 14 0 20l-33 33c9 15 16 32 20 49l47 0c8 0 14 6 14 14l0 77c0 8-6 14-14 14z m-242-115c-35 0-63 28-63 63 0 35 28 63 63 63 35 0 63-28 63-63 0-35-28-63-63-63z"/>
<glyph unicode="&#57430;" d="M449 493l-187-10 48-48c-28-29-137-161-53-311 0 0 52 207 135 229l47-47z m-182-438l2 9c-2 0-5 0-7 0z m196 211c-14 11-31 21-49 29-13 6-28 11-43 15-9-9-19-22-27-37 82-19 137-61 137-100 0-50-90-105-212-109l-2-9-5 9c-2 0-4 0-6 0-129 0-225 57-225 109 0 44 71 93 173 106 2 16 6 31 11 45-111-10-215-63-215-151 0-100 132-154 256-154 124 0 256 54 256 154 0 37-19 69-49 93z"/>
<glyph unicode="&#57431;" d="M-2 416l84 0 0-52-84 0z m0-120l84 0 0-196-84 0z m0 46l84 0 0-24-84 0z m111 8l84 0 0-96-84 0z m0-171l84 0 0-79-84 0z m0 53l84 0 0-31-84 0z m103 156l84 0 0-288-84 0z m0 64l84 0 0-41-84 0z m206-318l19-34 73 40-19 35z m-22 214l-73-41 84-153 73 41z m-38 69l-73-41 27-50 73 42z"/>
<glyph unicode="&#57432;" d="M513 170l-70 45 0 0-49 32 0 0-69 45 0 0-89 57c3 16 4 34 0 51-14 65-77 106-142 92-65-14-106-78-92-142 14-65 78-106 142-92 18 4 33 11 47 21l88-57-53-83 70-45 53 83 49-32-54-83 70-45 54 83 0 0 45 70 0 0z m-382 149c-31-6-61 13-67 44-7 31 13 61 43 67 31 7 61-13 68-43 6-31-13-61-44-68z"/>
<glyph unicode="&#57433;" d="M209 321l-149 0 0-131 150 0 0-115 49 45 151 136-152 136-49 45z m201 191l42 0 0-512-42 0z"/>
<glyph unicode="&#57434;" d="M494 154l-139 139c-7 6-17 6-23 0l-40-39-38 39 39 39c6 6 6 16 0 23l-139 139c-6 6-16 6-22 0l-114-114c-6-6-6-16 0-22l139-139c7-6 17-6 23 0l39 39 39-38-39-40c-6-6-6-16 0-23l139-139c6-6 16-6 22 0l114 114c6 6 6 16 0 22z m-325 121l-94 94 68 68 94-94-17-17-16 17c-7 6-17 6-23 0l-12-12c-6-6-6-16 0-23l17-16z m200-200l-94 94 17 17 16-17c7-6 17-6 23 0l12 12c6 6 6 16 0 23l-17 16 17 17 94-94z"/>
<glyph unicode="&#57435;" d="M256 512c-141 0-256-115-256-256 0-141 115-256 256-256 141 0 256 115 256 256 0 141-115 256-256 256z m-225-278l78 0c0-2 0-3 0-5 2-31 10-60 20-86l-68 0c-16 27-27 58-30 91z m240 150l0 88c27-29 48-58 65-88z m80-30c13-30 20-60 22-90l-102 0 0 90z m-110 30l-64 0c16 29 38 58 64 87l0-87z m0-30l0-90-101 0c2 30 9 60 22 90z m-132-90l-79 0c2 32 9 63 23 90l77 0c-12-30-19-60-21-90z m30-32c0 0 0 1 0 2l102 0 0-91-80 0c-11 26-19 56-22 89z m102-119l0-81c-12 11-41 39-65 81z m30-82l0 82 65 0c-24-42-53-71-65-82z m0 112l0 91 102 0c0-1 0-2 0-2-2-33-11-63-22-89l-80 0z m132 86c0 2 0 3 0 5l78 0c-3-33-14-64-30-91l-67 0c10 26 17 55 19 86z m0 35c-1 30-9 60-20 90l76 0c14-27 21-58 22-90z m39 120l-73 0c-15 31-35 61-61 92 55-13 102-47 134-92z m-237 92c-26-30-46-61-62-92l-73 0c32 46 79 79 135 92z m-124-363l61 0c15-30 34-55 49-73-43 13-82 39-110 73z m240-73c16 18 34 43 49 73l61 0c-28-34-66-60-110-73z"/>
<glyph unicode="&#57436;" d="M512 390c0-7-5-12-12-12l-301 0c-6 0-12 5-12 12l0 108c0 7 6 13 12 13l301 0c7 0 12-6 12-13z m0-377c0-6-5-12-12-12l-301 0c-6 0-12 6-12 12l0 109c0 7 6 12 12 12l301 0c7 0 12-5 12-12z m0 190c0-7-5-12-12-12l-301 0c-6 0-12 5-12 12l0 109c0 6 6 12 12 12l301 0c7 0 12-6 12-12z m-382 187c0-7-5-12-12-12l-106 0c-7 0-12 5-12 12l0 108c0 7 5 13 12 13l106 0c7 0 12-6 12-13z m0-377c0-6-5-12-12-12l-106 0c-7 0-12 6-12 12l0 109c0 7 5 12 12 12l106 0c7 0 12-5 12-12z m0 190c0-7-5-12-12-12l-106 0c-7 0-12 5-12 12l0 109c0 6 5 12 12 12l106 0c7 0 12-6 12-12z"/>
<glyph unicode="&#57437;" d="M340 490c-83 46-187 17-233-65-30-54-28-116-1-166 0-1 0-2 1-3l71-120c2-4 5-9 7-13l71-120c2-4 5-4 7 0l69 123c2 3 5 9 7 12l69 123c0 0 24 38 18 97 0 1 0 3 0 4 0 2-1 3-1 5 0 0 0 0 0 0-8 50-37 96-85 123z m41-219c-39-69-126-94-195-55-69 39-93 126-55 195 39 68 126 93 195 54 69-38 93-125 55-194z m-51 70c0-41-33-74-74-74-41 0-74 33-74 74 0 40 33 73 74 73 41 0 74-33 74-73z"/>
<glyph unicode="&#57438;" d="M481-4l26-1-118 305c14 5 25 17 25 33 0 20-15 37-35 37-20 1-37-15-38-35 0-16 10-30 25-35l-125-298 28-1 14 34 186-5z m-59 160l-90 3 47 116z m-129-94l30 72 108-2 28-75z m-61 433c-72 43-164 19-206-52-28-46-27-101-5-145 0-1 1-2 1-3l60-107c1-3 4-8 6-11l59-108c2-3 5-3 7 0l63 107c2 3 5 7 6 10l64 107c0 0 21 33 18 84-1 2-1 3-1 4 0 2 0 3 0 5 0 0 0-1 0-1-6 44-31 86-72 110z m31-193c-36-59-113-79-172-44-60 36-79 113-44 172 35 60 112 79 172 44 60-35 79-112 44-172z m-44 64c0-35-28-64-64-64-36 0-65 29-65 64 0 36 29 65 65 65 36 0 64-29 64-65z"/>
<glyph unicode="&#57439;" d="M410 323l-26 0 0 63c0 0 0 1 0 1-3 69-59 125-128 125-69 0-125-56-128-125 0 0 0-1 0-1l0-63-26 0c-3 0-6-3-6-6l0-311c0-3 3-6 6-6l308 0c3 0 6 3 6 6l0 311c0 3-3 6-6 6z m-107-236l-95 0 17 85c-10 9-17 21-17 36 0 27 22 48 48 48 26 0 48-21 48-48 0-15-7-28-17-37z m42 236l-178 0 0 53c0 0 0 1 0 1 2 50 41 91 89 91 48 0 87-41 89-91 0 0 0-1 0-1z"/>
<glyph unicode="&#57440;" d="M1 426l0-425 87 87 0 424z m212 0l0-425 87 87 0 424z m-18 0l0-425-87 87 0 424z m209-1l0-425-87 87 0 424z m20 1l0-425 87 87 0 424z"/>
<glyph unicode="&#57441;" d="M242 313l-146 0 0-114 146 0 0-100 174 157-174 157z"/>
<glyph unicode="&#57442;" d="M141 416l0-126 140 126 132 0-178-160 177-160-131 0-140 126 0-126-42 0 0 320z"/>
<glyph unicode="&#57443;" d="M371 416l0-126-140 126-132 0 178-160-177-160 131 0 140 126 0-126 42 0 0 320z"/>
<glyph unicode="&#57444;" d="M293 512l210 0-284-256 284-256-211 0-283 256z"/>
<glyph unicode="&#57445;" d="M219 512l-210 0 284-256-284-256 211 0 283 256z"/>
<glyph unicode="&#57446;" d="M512 324l-188 0 0 188-136 0 0-188-188 0 0-136 188 0 0-188 136 0 0 188 188 0z"/>
<glyph unicode="&#57447;" d="M463 140l0 268c0 3-1 5-3 7-1 2-4 4-8 4l-393 0c-4 0-7-2-9-4-1-2-2-4-2-7l0-268c0-1 0-1 0-1l414 0c0 0 1 0 1 1z m-35 39c0-1 0-2-1-3-1-3-3-5-6-5l-24 0 0 0-283 0 0 0-24 0c-3 0-6 2-7 5 0 1 0 2 0 3l0 201c0 1 0 2 0 3 1 3 4 5 7 5l24 0 0 0 283 0 0 0 24 0c3 0 5-2 6-5 1-1 1-2 1-3l0-201z m-428-69l0-17 0 0c2-9 9-15 17-15l478 0c8 0 15 6 16 15l1 0 0 17z"/>
<glyph unicode="&#57448;" d="M384 323l0 63c0 0 0 1 0 1-2 69-58 125-128 125-69 0-125-56-127-125 0 0-1-1-1-1l0-63-32 0 0-323 320 0 0 323z m-217 53c0 0 0 1 0 1 2 50 41 91 89 91 49 0 88-41 89-91 0 0 0-1 0-1l0-53-178 0z m137-289l-96 0 17 85c-10 9-17 21-17 36 0 27 22 48 48 48 27 0 48-21 48-48 0-15-7-28-17-37z"/>
<glyph unicode="&#57449;" d="M397 234l-119-119 105-105c5-5 13-5 18 0l101 101c5 5 5 13 0 18z m-268 268c-5 5-13 5-18 0l-101-101c-5-5-5-13 0-18l105-105 119 119z m373-101l-101 101c-5 5-13 5-18 0l-127-127-119-119-127-127c-5-5-5-13 0-18l101-101c5-5 13-5 18 0l127 127 119 119 127 127c5 5 5 13 0 18z m-146-126l-133-132-80 81 153 152 80-80z"/>
<glyph unicode="&#57450;" d="M258 0c-87 0-158 70-158 157 0 87 71 157 158 157 86 0 157-70 157-157 0-87-71-157-157-157z m0 274c-65 0-117-53-117-117 0-64 52-117 117-117 64 0 116 53 116 117 0 64-52 117-116 117z m0-274c-87 0-158 70-158 157 0 87 71 157 158 157 86 0 157-70 157-157 0-87-71-157-157-157z m0 274c-65 0-117-53-117-117 0-64 52-117 117-117 64 0 116 53 116 117 0 64-52 117-116 117z m0 135c-52 0-100-16-140-43-11-8-21-17-31-26l29-29c9 9 20 18 32 25 32 20 69 32 110 32 39 0 75-11 106-30 11-7 22-15 32-24l29 29c-10 9-20 17-32 25-39 26-85 41-135 41z m213 31c-60 45-133 72-213 72-82 0-157-28-217-74-11-9-21-18-31-27l29-29c9 10 20 18 31 27 52 39 117 62 188 62 69 0 132-22 184-60 5-4 10-7 15-11 6-5 11-10 16-15l29 29c-10 9-20 18-31 26z"/>
<glyph unicode="&#57451;" d="M442 516l-372 0c-8 0-15-7-15-15l0-490c0-8 7-15 15-15l372 0c8 0 15 7 15 15l0 490c0 8-7 15-15 15z m-186-502c-15 0-28 12-28 28 0 16 13 29 28 29 16 0 29-13 29-29 0-16-13-28-29-28z m158 93c0-5-5-10-11-10l-294 0c-6 0-11 5-11 10l0 350c0 6 5 11 11 11l294 0c6 0 11-5 11-11z m-160 23c-43 0-78 35-78 78 0 44 35 79 78 79 44 0 79-35 79-79 0-43-35-78-79-78z m0 137c-32 0-58-26-58-59 0-32 26-58 58-58 32 0 58 26 58 58 0 33-26 59-58 59z m0 80c-26 0-50-8-69-22-6-4-11-8-16-13l14-14c5 5 10 9 16 12 16 11 35 17 55 17 20 0 38-6 53-15 6-4 12-8 17-13l14 15c-5 4-10 9-16 12-20 13-43 21-68 21z m107 32c-30 23-67 36-107 36-41 0-78-14-108-37-6-4-11-9-16-13l15-15c5 5 10 9 15 13 27 20 59 32 94 32 35 0 66-11 92-30 3-2 5-4 8-6 3-2 5-5 8-7l14 14c-5 5-10 9-15 13z"/>
<glyph unicode="&#57452;" d="M258 0c-87 0-157 70-157 157 0 87 70 157 157 157 86 0 157-70 157-157 0-87-71-157-157-157z m0 274c-65 0-117-53-117-117 0-64 52-116 117-116 64 0 116 52 116 116 0 64-52 117-116 117z m0-274c-87 0-157 70-157 157 0 87 70 157 157 157 86 0 157-70 157-157 0-87-71-157-157-157z m0 274c-65 0-117-53-117-117 0-64 52-116 117-116 64 0 116 52 116 116 0 64-52 117-116 117z m0 135c-52 0-100-16-140-44-11-7-21-16-31-25l29-29c9 9 20 18 32 25 32 20 69 32 110 32 39 0 75-11 106-29 11-8 22-16 32-25l29 29c-10 9-20 17-32 25-39 26-85 41-135 41z m213 31c-60 45-133 72-213 72-82 0-157-28-217-74-11-9-21-18-31-27l29-29c9 10 20 18 31 27 52 39 117 62 188 62 69 0 132-22 184-60 5-4 10-7 15-11 6-5 11-10 16-15l29 29c-10 9-20 18-31 26z m-164-280c0-28-23-51-51-51-28 0-51 23-51 51 0 29 23 51 51 51 28 0 51-22 51-51z"/>
<glyph unicode="&#57453;" d="M510 2l-329 360c9 15 15 33 15 52 0 53-44 96-97 96-54 0-97-43-97-96 0-54 43-97 97-97 16 0 31 4 44 11z m-409 417c-14-20-40-26-58-13-18 13-22 39-8 59 14 20 41 26 59 13 18-13 21-39 7-59z"/>
<glyph unicode="&#57454;" d="M528 293l-100 0 0 67-135 135-209 0 0-202-100 0 0-229 59 0 0-47 427 0 0 47 58 0z m-412 170l164 0 116-117 0-53-280 0z m322-414l-363 0 0 15 363 0z m58 47l-480 0 0 165 480 0z m-385 100l-35 0c-10 0-17-8-17-18 0-9 7-17 17-17l35 0c9 0 17 8 17 17 0 10-8 18-17 18z"/>
<glyph unicode="&#57455;" d="M402 125l37 40-1 0c0 0 0 1 0 1 0 2-1 3-3 3l-91 0 0 119 0 1c0 3-2 5-5 5l-39 0 0-23c0 0 1-1 1-1l0-13c0 0-1-1-1-1l0-43c0 0 1 0 1-1l0-13c0-2-2-4-5-4l-61 0 0-26-91 0c-1 0-3-1-3-3 0 0 1-1 1-1l-1 0 36-40 113-125z m-125 98l0 13c0 0 0 0 0 1l0 42c0 1 0 1 0 1l0 13c0 1 0 1 0 2l0 48 91 0c1 0 3 1 3 3 0 0-1 1-1 1l1 0-36 40-113 125-112-125-37-40 1 0c0 0 0-1 0-1 0-2 1-3 3-3l91 0 0-119 0-1c0-3 2-5 5-5l100 0c2 0 4 2 4 5z"/>
<glyph unicode="&#57456;" d="M123 368c0 33 26 59 58 59l45 0 0 62c0 8-6 15-14 15l-186 0c-8 0-15-7-15-15l0-186c0-8 7-14 15-14l97 0 0 79z m389-323c0-9-7-15-15-15l-186 0c-8 0-14 6-14 15l0 185c0 9 6 15 14 15l186 0c8 0 15-6 15-15z m-331 79c-32 0-58 26-58 58l0 41-108 0c-8 0-15-6-15-14l0-186c0-8 7-15 15-15l186 0c8 0 14 7 14 15l0 101z m72 106c0 33 26 59 58 59l71 0 0 79c0 9-7 15-15 15l-186 0c-8 0-15-6-15-15l0-186c0-8 7-14 15-14l72 0 0 62z"/>
<glyph unicode="&#57457;" d="M5 216c23-88 113-141 202-118 35 9 65 29 87 55l182-107c13-8 28-6 34 4 6 10 0 25-13 32l-181 107c15 33 20 72 10 110-23 88-113 141-202 119-88-23-142-113-119-202z m288 74c19-70-24-142-95-160-70-18-142 24-160 95-18 70 24 142 95 160 70 18 142-24 160-95z m167 135l0 46-293 0 0-21c34 0 67-9 95-25z m-317 24l0 22-54 0 0-37c9 4 18 8 28 10 9 2 17 4 26 5z m118-151c-14 33-44 56-79 62l0-62 79 0z m199 12l0 46-128 0c8-14 15-29 20-46l108 0z m-317-12l0 61c-1-1-2-1-3-1-31-8-55-29-68-56l0-4z m45-44l0-71 50 0c19 19 30 44 31 71z m171-58l101 0 0 46-102 0c-1-14-3-28-7-41z m-216 58l-71 0 0-41c5-11 13-21 21-30l50 0 0 71z"/>
<glyph unicode="&#57458;" d="M215 417l21 0 0 68-139 0 0-68 21 0 0-32-53 0-64-182 0-59 56 0 0-38-19 0 0-79 173 0 0 79-19 0 0 38 43 0 0 241-20 0z m296-273l0 59-65 182-52 0 0 32 21 0 0 68-139 0 0-68 21 0 0-32-20 0 0-241 43 0 0-38-19 0 0-79 173 0 0 79-19 0 0 38z"/>
<glyph unicode="&#57459;" d="M446 296l66 0 0-18-66 0z m0-28l66 0 0-19-66 0z m0-29l66 0 0-18-66 0z m-276 57l-127 0 0-18 105 0c7 6 14 13 22 18z m180-18l58 0 0 18-80 0c8-5 15-12 22-18z m58-29l0 19-50 0c5-6 9-12 13-19z m-365 19l0-19 84 0c3 7 8 13 12 19z m0-29l0-18 71 0c2 6 5 12 8 18z m365-18l0 18-32 0c3-6 5-12 7-18z m-225-10l138 0 0-21-138 0z m69 40c-21 0-40-11-49-29l97 0c-9 18-27 29-48 29z m-118-111c14-66 79-107 144-92 26 6 48 20 64 39l130-83c10-6 21-5 25 2 5 8 1 18-8 24l-130 83c12 24 16 52 10 81-15 65-79 106-144 92-65-15-106-80-91-146z m211 48c12-52-21-104-73-116-51-12-103 21-114 73-12 53 20 105 72 116 52 12 103-21 115-73z m158 324l-494 0c-5 0-9-4-9-9l0-68c0-5 4-9 9-9l494 0c5 0 9 4 9 9l0 68c0 5-4 9-9 9z m-484-74l0 62 35-31z m484-30l-494 0c-5 0-9-4-9-9l0-68c0-5 4-9 9-9l494 0c5 0 9 4 9 9l0 68c0 5-4 9-9 9z m-452-60l-32 35 63 0z"/>
<glyph unicode="&#57460;" d="M418 164l0 122-108 0 0-122-93 0 36-40 111-124 112 124 36 40z m-207-110l-107 0 0 336 273 0 0-45 43 0 0 96-67 0 0 6c0 10-7 18-16 18l-42 0c-6 27-30 47-58 47-29 0-53-20-59-47l-34 0c-9 0-16-8-16-18l0-6-66 0 0-441 149 0z m23 386c-15 0-27 13-27 28 0 15 12 27 27 27 15 0 27-12 27-27 0-15-12-28-27-28z"/>
<glyph unicode="&#57461;" d="M386 413l-253 0-133-94 0-220 512 0 0 220z m-279-220l-43 0 0 33 43 0z m341 0l-283 0 0 33 283 0z"/>
<glyph unicode="&#57462;" d="M495 512l-478 0c-8 0-16-7-16-16l0-480c0-9 8-16 16-16l478 0c8 0 16 7 16 16l0 480c0 9-8 16-16 16z m-295-24c14 0 26-12 26-26 0-14-12-25-26-25-14 0-25 11-25 25 0 14 11 26 25 26z m-71 0c14 0 25-12 25-26 0-14-11-25-25-25-14 0-25 11-25 25 0 14 11 26 25 26z m-71 0c14 0 25-12 25-26 0-14-11-25-25-25-14 0-26 11-26 25 0 14 12 26 26 26z m421-456l-446 0 0 387 446 0z"/>
<glyph unicode="&#57463;" d="M505 473l-495 0c-5 0-9-4-9-8l0-302c0-5 4-8 9-8l229 0 0-45-79 0c-5 0-9-3-9-8l0-21c0-4 4-8 9-8l195 0c5 0 8 4 8 8l0 21c0 5-3 8-8 8l-79 0 0 45 229 0c5 0 8 3 8 8l0 302c0 4-3 8-8 8z m-30-275c0-3-3-6-7-6l-421 0c-4 0-7 3-7 6l0 232c0 3 3 6 7 6l421 0c4 0 7-3 7-6l0-232z m-164 203l-49-50-50 50-36-36 50-50-50-49 36-36 50 49 49-49 36 36-49 49 49 50z"/>
<glyph unicode="&#57464;" d="M480 480l0-448-448 0 0 448 448 0m32 32l-512 0 0-512 512 0z m-330-270c0 21-7 41-33 41-20 0-37-9-49-18l-12 20c16 10 39 21 65 21 40 0 57-27 57-68l0-100-23 0-2 19-1 0c-16-12-34-23-54-23-28 0-49 17-49 46 0 36 31 54 101 62z m-45-86c16 0 29 8 45 22l0 46c-55-7-73-21-73-42 0-18 12-26 28-26z m125 222l28 0 0-209c0-9 4-12 8-12 2 0 3 0 6 0l4-21c-4-1-9-2-16-2-21 0-30 13-30 37l0 207z m91-99l-24 0 0 21 26 2 3 46 23 0 0-46 45 0 0-23-45 0 0-91c0-20 7-32 26-32 5 0 13 3 18 5l6-21c-9-3-21-6-31-6-35 0-47 22-47 54l0 91z"/>
<glyph unicode="&#57465;" d="M480 480l0-448-448 0 0 448 448 0m32 32l-512 0 0-512 512 0z m-380-216c18 0 30-7 39-16l-11-14c-8 7-16 12-27 12-23 0-41-21-41-51 0-30 17-50 41-50 12 0 23 6 30 13l10-15c-11-10-27-17-42-17-35 0-62 26-62 69 0 44 30 69 63 69z m141-51c0 16-5 33-27 33-15 0-28-7-39-14l-9 15c13 8 31 17 52 17 32 0 45-21 45-54l0-80-18 0-2 15 0 0c-13-10-27-19-44-19-22 0-38 14-38 38 0 28 25 42 80 49z m-35-69c12 0 23 6 35 18l0 36c-44-5-58-16-58-33 0-15 10-21 23-21z m147 120c15 0 25-6 36-15l-1 22 0 51 23 0 0-192-19 0-2 15 0 0c-11-10-25-19-40-19-33 0-54 25-54 69 0 42 27 69 57 69z m2-119c12 0 22 6 33 18l0 69c-11 10-21 13-32 13-21 0-37-20-37-50 0-31 13-50 36-50z"/>
<glyph unicode="&#57466;" d="M480 480l0-448-448 0 0 448 448 0m32 32l-512 0 0-512 512 0z m-148-286l-42 0 0 60 42 0c42 0 77 34 77 77 0 42-35 77-77 77-43 0-78-35-78-77l0-42-60 0 0 42c0 42-35 77-78 77-42 0-77-35-77-77 0-43 35-77 77-77l42 0 0-60-42 0c-42 0-77-34-77-77 0-42 35-77 77-77 43 0 78 35 78 77l0 42 60 0 0-42c0-42 35-77 78-77 42 0 77 35 77 77 0 43-35 77-77 77z m-42 137c0 23 19 41 42 41 23 0 41-18 41-41 0-23-18-42-41-42l-42 0z m-132-214c0-23-19-41-42-41-23 0-41 18-41 41 0 23 18 42 41 42l42 0z m-42 172c-23 0-41 19-41 42 0 23 18 41 41 41 23 0 42-18 42-41l0-42z m138-95l-60 0 0 60 60 0z m78-118c-23 0-42 18-42 41l0 42 42 0c23 0 41-19 41-42 0-23-18-41-41-41z"/>
<glyph unicode="&#57467;" d="M480 480l0-448-448 0 0 448 448 0m32 32l-512 0 0-512 512 0z m-365-218c16 0 28-7 36-15l-10-13c-8 6-16 11-26 11-22 0-39-20-39-49 0-29 16-48 39-48 12 0 22 6 29 12l10-14c-11-10-26-16-41-16-33 0-59 24-59 66 0 42 28 66 61 66z m70-20l-18 0 0 16 19 1 3 36 18 0 0-36 34 0 0-17-34 0 0-70c0-16 5-25 19-25 5 0 10 2 14 4l5-16c-7-3-16-5-24-5-27 0-36 17-36 42l0 70z m84 17l18 0 2-23 1 0c8 16 21 26 35 26 6 0 10 0 14-2l-4-19c-4 1-7 2-13 2-10 0-23-8-31-29l0-81-22 0z m90 59l22 0 0-161c0-7 3-9 6-9 1 0 2 0 4 0l3-16c-3-1-6-2-12-2-16 0-23 10-23 29z"/>
<glyph unicode="&#57468;" d="M480 480l0-448-448 0 0 448 448 0m32 32l-512 0 0-512 512 0z m-373-187c33 0 52-24 52-62 0-4 0-9 0-12l-89 0c1-28 18-46 44-46 12 0 23 4 32 10l8-14c-11-8-25-14-43-14-35 0-63 26-63 69 0 43 29 69 59 69z m33-59c0 27-12 41-33 41-18 0-35-15-37-41z m48-46c12-9 23-16 39-16 17 0 26 10 26 21 0 13-16 19-30 25-19 7-39 15-39 38 0 21 17 37 45 37 17 0 31-7 41-15l-11-14c-9 7-18 12-30 12-16 0-24-9-24-19 0-12 15-17 29-23 19-7 40-15 40-40 0-21-17-39-48-39-18 0-36 8-49 18z m171 105c17 0 29-7 38-16l-11-14c-8 7-16 12-26 12-24 0-41-21-41-51 0-30 16-51 40-51 13 0 23 7 31 14l10-15c-12-10-27-17-43-17-35 0-61 25-61 69 0 44 29 69 63 69z"/>
<glyph unicode="&#57469;" d="M95 382l145 0 0-27-113 0 0-85 96 0 0-27-96 0 0-113-32 0z m184-226l56 0 0 181-44 0 0 20c22 4 38 10 52 18l24 0 0-219 50 0 0-26-138 0z m201 324l0-448-448 0 0 448 448 0m32 32l-512 0 0-512 512 0z"/>
<glyph unicode="&#57470;" d="M480 480l0-448-448 0 0 448 448 0m32 32l-512 0 0-512 512 0z m-420-130l146 0 0-27-114 0 0-85 96 0 0-27-96 0 0-113-32 0z m170-233c73 73 115 117 115 157 0 28-15 48-46 48-21 0-38-13-53-30l-18 18c21 23 42 38 74 38 46 0 74-29 74-73 0-46-42-91-100-152 13 1 28 2 41 2l71 0 0-27-158 0z"/>
<glyph unicode="&#57471;" d="M480 480l0-448-448 0 0 448 448 0m32 32l-512 0 0-512 512 0z m-419-128l146 0 0-27-114 0 0-85 96 0 0-27-96 0 0-113-32 0z m181-201c14-15 34-29 62-29 30 0 51 18 51 45 0 29-20 49-78 49l0 24c52 0 69 20 69 45 0 24-16 39-42 39-20 0-38-10-52-25l-17 20c19 18 41 31 70 31 43 0 73-23 73-62 0-30-18-49-44-59l0-1c29-7 53-29 53-62 0-44-36-70-81-70-39 0-64 16-80 34z"/>
<glyph unicode="&#57472;" d="M480 480l0-448-448 0 0 448 448 0m32 32l-512 0 0-512 512 0z m-423-130l145 0 0-27-113 0 0-85 96 0 0-27-96 0 0-113-32 0z m334-184l-33 0 0-68-30 0 0 68-110 0 0 20 104 157 36 0 0-152 33 0z m-63 25l0 71c0 13 1 34 2 47l-2 0c-6-12-13-22-20-34l-57-84z"/>
<glyph unicode="&#57473;" d="M480 480l0-448-448 0 0 448 448 0m32 32l-512 0 0-512 512 0z m-419-128l145 0 0-27-113 0 0-85 96 0 0-27-96 0 0-113-32 0z m179-202c15-15 33-28 62-28 30 0 54 22 54 56 0 34-21 54-53 54-17 0-27-6-41-15l-17 10 8 118 122 0 0-27-95 0-6-72c11 6 22 9 37 9 42 0 76-23 76-76 0-53-40-83-82-83-39 0-63 16-80 33z"/>
<glyph unicode="&#57474;" d="M480 480l0-448-448 0 0 448 448 0m32 32l-512 0 0-512 512 0z m-421-128l146 0 0-27-114 0 0-85 96 0 0-27-96 0 0-113-32 0z m308-48c-10 12-25 19-41 19-34 0-63-26-64-104 15 19 37 31 57 31 42 0 70-25 70-75 0-47-33-79-73-79-48 0-84 39-84 118 0 98 44 136 93 136 27 0 45-11 59-26z m-8-130c0 32-15 52-45 52-16 0-35-9-51-32 3-48 22-73 53-73 25 0 43 21 43 53z"/>
<glyph unicode="&#57475;" d="M480 480l0-448-448 0 0 448 448 0m32 32l-512 0 0-512 512 0z m-421-130l146 0 0-27-113 0 0-85 96 0 0-27-96 0 0-113-33 0z m294-34l-122 0 0 27 158 0 0-20c-58-74-70-129-75-225l-32 0c4 92 22 151 71 218z"/>
<glyph unicode="&#57476;" d="M480 480l0-448-448 0 0 448 448 0m32 32l-512 0 0-512 512 0z m-421-128l146 0 0-27-113 0 0-85 95 0 0-27-95 0 0-113-33 0z m216-123l0 2c-18 12-34 30-34 56 0 38 30 63 70 63 42 0 69-27 69-65 0-26-19-48-34-59l0-2c22-13 43-30 43-63 0-36-32-65-79-65-46 0-81 28-81 67 0 32 23 54 46 66z m35-110c29 0 48 18 48 43 0 32-31 43-66 57-20-13-34-31-34-53 0-27 22-47 52-47z m43 164c0 24-16 43-43 43-23 0-39-15-39-39 0-29 26-41 56-53 16 15 26 31 26 49z"/>
<glyph unicode="&#57477;" d="M480 480l0-448-448 0 0 448 448 0m32 32l-512 0 0-512 512 0z m-419-128l145 0 0-27-113 0 0-85 96 0 0-27-96 0 0-113-32 0z m191-211c10-11 25-19 41-19 34 0 63 27 65 105-16-20-38-31-58-31-42 0-69 25-69 75 0 47 33 79 72 79 48 0 84-39 84-118 0-98-44-136-93-136-26 0-46 11-59 26z m105 111c-4 48-23 73-54 73-24 0-43-22-43-54 0-32 15-52 45-52 16 0 35 10 52 33z"/>
<glyph unicode="&#57478;" d="M480 480l0-448-448 0 0 448 448 0m32 32l-512 0 0-512 512 0z m-436-167l101 0 0-19-79 0 0-59 67 0 0-18-67 0 0-79-22 0z m128-157l39 0 0 125-31 0 0 15c16 2 27 6 36 12l17 0 0-152 35 0 0-18-96 0z m123 68c0 57 21 87 55 87 33 0 54-30 54-87 0-57-21-89-54-89-34 0-55 32-55 89z m88 0c0 50-14 70-33 70-20 0-34-21-34-70 0-50 14-71 34-71 19 0 33 21 33 71z"/>
<glyph unicode="&#57479;" d="M480 480l0-448-448 0 0 448 448 0m32 32l-512 0 0-512 512 0z m-437-167l102 0 0-19-80 0 0-60 68 0 0-19-68 0 0-80-22 0z m130-159l40 0 0 127-32 0 0 14c16 3 27 7 37 13l17 0 0-154 36 0 0-19-98 0z m135 0l39 0 0 127-31 0 0 14c16 3 27 7 37 13l17 0 0-154 35 0 0-19-97 0 0 19z"/>
<glyph unicode="&#57480;" d="M480 480l0-448-448 0 0 448 448 0m32 32l-512 0 0-512 512 0z m-438-168l102 0 0-19-79 0 0-59 67 0 0-19-67 0 0-79-23 0z m130-158l39 0 0 126-31 0 0 15c15 2 27 7 36 12l17 0 0-153 36 0 0-18-97 0z m123-5c52 51 81 82 81 110 0 20-11 34-33 34-14 0-27-10-37-21l-12 13c14 15 29 26 52 26 32 0 51-21 51-51 0-32-29-64-70-107 10 1 20 2 29 2l50 0 0-19-111 0z"/>
<glyph unicode="&#57481;" d="M506 392l-500 0c-3 0-6-2-6-6l0-260c0-4 3-6 6-6l500 0c3 0 6 2 6 6l0 260c0 4-3 6-6 6z m-15-251l-470 0 0 230 470 0z m-443 203l41 0 0-42-41 0z m62 0l42 0 0-42-42 0z m63 0l41 0 0-42-41 0z m63 0l41 0 0-42-41 0z m-188-59l41 0 0-41-41 0z m62 0l42 0 0-41-42 0z m63 0l41 0 0-41-41 0z m125 59l41 0 0-42-41 0z m62 0l42 0 0-42-42 0z m63 0l41 0 0-42-41 0z m-125-59l41 0 0-41-41 0z m62 0l42 0 0-41-42 0z m63 0l41 0 0-41-41 0z m-187 0l41 0 0-41-41 0z m-105-72l251 0 0-42-251 0z"/>
<glyph unicode="&#57482;" d="M506 318l-149 0 0 149c0 3-3 6-6 6l-345 0c-3 0-6-3-6-6l0-210c0-3 3-6 6-6l149 0 0-31-45 0c-3 0-5-2-5-6l0-14c0-3 2-6 5-6l45 0 0-92c0-3 3-6 6-6l160 0 0-31-55 0c-4 0-6-3-6-6l0-14c0-3 2-6 6-6l136 0c3 0 5 3 5 6l0 14c0 3-2 6-5 6l-55 0 0 31 159 0c3 0 6 3 6 6l0 210c0 3-3 6-6 6z m-474-41c-3 0-5 2-5 5l0 161c0 2 2 4 5 4l293 0c3 0 5-2 5-4l0-125-169 0c-3 0-6-3-6-6l0-35z m453-151c0-2-2-4-5-4l-293 0c-3 0-5 2-5 4l0 162c0 2 2 4 5 4l293 0c3 0 5-2 5-4z"/>
<glyph unicode="&#57483;" d="M273 343c0-10-8-17-17-17-9 0-17 7-17 17l0 61c0 9 8 17 17 17 9 0 17-8 17-17z m-169-196c0-81 65-147 146-147l12 0c81 0 146 66 146 147l0 154-304 0z m109 257c0 19 12 35 29 41l0 67c-77-5-138-68-138-146l0-36 111 0c-1 4-2 8-2 13z m195-38c0 78-61 141-138 146l0-67c17-6 29-22 29-41l0-61c0-5-1-9-2-13l111 0z"/>
<glyph unicode="&#57484;" d="M271 299l0 73c0 5-4 9-9 9-5 0-9-4-9-9l0-73c0-5 4-9 9-9 5 0 9 4 9 9z m22 60l-9 3 0-35 4-1c26-11 44-36 44-65 0-38-32-69-70-69-38 0-70 31-70 69 0 29 17 54 44 65l4 1 0 35-9-3c-43-14-71-53-71-98 0-56 46-102 102-102 56 0 102 46 102 102 0 45-29 84-71 98z m-269-46c0-1 0-1 0-1l4-42c1-11 9-15 18-9l22 16 12 9c10 6 24 17 34 23l34 25c9 6 8 15-2 20l-16 7 0 0-14 7c35 36 84 59 138 59 72 0 135-40 167-98l43 29c-42 73-120 122-210 122-76 0-143-35-188-89l-20 9 0 0-13 6c-10 5-18 0-17-12l4-42c1-11 3-28 4-39z m464-115c0 0 0 0 0 1l-3 41c-1 11-10 15-19 9l-22-16-12-9c-9-6-24-16-33-23l-34-24c-9-6-8-15 2-20l16-7 14-7c-35-36-83-59-137-59-71 0-133 40-165 98l-43-30c42-71 119-120 208-120 75 0 142 35 186 89l20-10 1 0 12-6c10-4 18 1 17 12l-4 41c-1 11-3 29-4 40z"/>
<glyph unicode="&#57485;" d="M504 456l-496 0c-4 0-8-4-8-8l0-302c0-5 4-8 8-8l229 0 0-45-79 0c-4 0-8-3-8-8l0-21c0-4 4-8 8-8l196 0c4 0 8 4 8 8l0 21c0 5-4 8-8 8l-79 0 0 45 229 0c4 0 8 3 8 8l0 302c0 4-4 8-8 8z m-31-275c0-3-3-6-7-6l-420 0c-4 0-7 3-7 6l0 232c0 4 3 6 7 6l420 0c4 0 7-2 7-6l0-232z m-108 180l-16 0c0 0 0 0 0 0l0 3c0 4-3 7-7 7l-25 0c-4 0-8-3-8-7l0-3-162 0c-4 0-8-3-8-7l0-125c0-4 4-7 8-7l218 0c4 0 8 3 8 7l0 125c0 4-4 7-8 7z m-173-23c0-5-4-8-8-8l-29 0c-4 0-7 3-7 8l0 6c0 4 3 7 7 7l29 0c4 0 8-3 8-7l0-6z m65-95c-28 0-50 22-50 50 0 27 22 49 50 49 27 0 50-22 50-49 0-28-23-50-50-50z m31 50c0-18-14-31-31-31-17 0-31 13-31 31 0 17 14 31 31 31 17 0 31-14 31-31z"/>
<glyph unicode="&#57486;" d="M504 456l-496 0c-4 0-8-4-8-8l0-302c0-5 4-8 8-8l229 0 0-45-79 0c-4 0-8-3-8-8l0-21c0-4 4-8 8-8l196 0c4 0 8 4 8 8l0 21c0 5-4 8-8 8l-79 0 0 45 229 0c4 0 8 3 8 8l0 302c0 4-4 8-8 8z m-31-275c0-3-3-6-7-6l-420 0c-4 0-7 3-7 6l0 232c0 4 3 6 7 6l420 0c4 0 7-2 7-6l0-232z m-129 64c0 11-5 21-12 28l0 0c0 0 0 0 0 0l-96 97c-1 0-1 0-1 0l-2 3-1-1c-6 6-15 9-24 9-22 0-40-17-40-39 0-9 4-18 9-25l0 0 2-1c0-1 1-2 2-3l94-94c8-8 18-13 29-13 22 0 40 18 40 39z m-136 49l48 47 48-47-48-48z"/>
<glyph unicode="&#57487;" d="M369 441l0 6c0 10-7 18-17 18l-42 0c-6 27-30 47-58 47-29 0-53-20-59-47l-34 0c-10 0-17-8-17-18l0-6-66 0 0-441 360 0 0 441z m-120 54c15 0 27-12 27-27 0-15-12-28-27-28-15 0-27 13-27 28 0 15 12 27 27 27z m82-441l-213 0 0 336 281 0-1-267-67 0 0-69z m17-3l0 55 51 0z"/>
<glyph unicode="&#57488;" d="M327 509c-102 0-185-83-185-185 0-41 13-79 36-110l-168-167c-11-12-13-29-4-38 9-9 26-7 38 4l166 167c32-26 73-42 117-42 102 0 185 83 185 186 0 102-83 185-185 185z m0-333c-82 0-148 66-148 148 0 81 66 147 148 147 81 0 147-66 147-147 0-82-66-148-147-148z m94 172l-69 0 0 69-50 0 0-69-68 0 0-50 68 0 0-69 50 0 0 69 69 0z"/>
<glyph unicode="&#57489;" d="M327 509c-102 0-185-83-185-185 0-41 13-79 36-110l-168-167c-11-12-13-29-4-38 9-9 26-7 38 4l166 167c32-26 73-42 117-42 102 0 185 83 185 186 0 102-83 185-185 185z m0-333c-82 0-148 66-148 148 0 81 66 147 148 147 81 0 147-66 147-147 0-82-66-148-147-148z m-93 172l187 0 0-50-187 0z"/>
<glyph unicode="&#57490;" d="M387 402l-40 37 0-1c0 0-1 0-1 0-2 0-3-1-3-3l0-91-96 0-11 0-12 0-1 0c-3 0-5-2-5-5l0-39 23 0c0 0 1 1 1 1l13 0c0 0 1-1 1-1l43 0c0 0 0 1 1 1l13 0c2 0 4-2 4-5l0-61 26 0 0-91c0-1 1-3 3-3 0 0 1 1 1 1l0-1 40 36 125 113z m-98-125l-13 0c0 0 0 0-1 0l-10 0-32 0c-1 0-1 0-1 0l-13 0c-1 0-1 0-2 0l-22 0-26 0 0 91c0 1-1 3-3 3 0 0-1-1-1-1l0 1-40-36-125-113 125-112 40-37 0 1c0 0 1 0 1 0 2 0 3 1 3 3l0 91 96 0 11 0 13 0c3 0 5 2 5 5l0 100c0 2-2 4-5 4z"/>
<glyph unicode="&#57491;" d="M486 446l-206 0 23-33 174 0 0-31 33 0 0 40c0 14-11 24-24 24z m-238-11c0 1-1 1-1 2l-2 2 0-1c-5 4-10 6-17 6l-198 0c-16 0-28-12-28-28l0-39c0 0 0 0 0 0l0 0 0-311 508 0 0 284-203 0z m30-252l0-23c0-2-1-3-2-3l-72 0 0-54c0-1 0-2-1-2-1 0-1 0-1 0l0 0-24 21-74 67 74 67 24 21 0 0c0 0 0 0 1 0 1 0 1-1 1-2l0-54 29 0c0 1 1 1 1 1l8 0c0 0 0 0 0-1l25 0c1 1 1 1 1 1l8 0c1 0 2-1 2-3z m30 132c0 1 0 2 1 2 1 0 1 0 1 0l0 1 24-22 74-67-74-66-24-22 0 1c0-1 0-1-1-1-1 0-1 1-1 2l0 54-16 0 0 36c0 1-1 3-2 3l-8 0c0 0 0-1-1-1l-25 0c0 0 0 1-1 1l-7 0c-1 0-1-1-1-1l-13 0 0 24c0 1 1 2 2 2l8 0 7 0 57 0z"/>
<glyph unicode="&#57492;" d="M266 507c-61 0-117-22-160-58-16-12-31-26-44-42l-22 11 0 0-14 6c-11 5-19-1-18-13l4-45c1-11 3-30 4-42 0-1 0-1 0-1l4-45c2-12 11-16 20-9l24 16 13 10c10 7 26 18 36 25l37 26c10 7 9 17-2 22l-18 8-10 5c28 32 67 54 110 63 4 0 7 1 11 1 1 0 2 0 2 1 7 0 14 1 21 1 36 0 69-10 98-26 30-17 55-42 73-72l56 21c-42 81-127 137-225 137z m-20-502c61 0 117 22 160 58 16 12 31 26 44 42l22-11 0 0 14-6c11-5 19 1 18 13l-4 45c-1 11-3 30-4 42 0 1 0 1 0 1l-4 45c-2 12-11 16-20 9l-24-16-13-10c-10-7-26-18-36-25l-37-26c-10-7-9-17 2-22l18-8 10-5c-28-32-67-54-110-63-4 0-7-1-11-1-1 0-2 0-2-1-7 0-14-1-21-1-36 0-69 10-98 26-30 17-55 42-73 72l-56-21c42-81 127-137 225-137z"/>
<glyph unicode="&#57493;" d="M381 287l-116-44 0 115 116 44z m-252 1l115-44 0 115-115 44z m125 90l-114 39 116 39 114-35z m-6-274l-116-44 0 116 116 43z m-248 1l115-44 0 115-115 44z m125 86l-114 42 113 35 114-37z m387-88l-115-44 0 115 115 44z m-248-3l115-44 0 116-115 43z m123 90l-118 41 119 39 118-36z"/>
<glyph unicode="&#57494;" d="M293 56l-241 0 0 403 240 0 0-86 49 0 0 123c0 9-8 16-17 16l-309 0c-10 0-17-7-17-16l0-480c0-9 7-16 17-16l309 0c9 0 17 7 17 16l0 120-48 0z m221 198l-118 119 0-78-129 0 0-78 129 0 0-81z"/>
<glyph unicode="&#57495;" d="M380 480l0-448-248 0 0 448 248 0m19 32l-286 0c-7 0-13-4-13-9l0-494c0-5 6-9 13-9l286 0c7 0 13 4 13 9l0 494c0 5-6 9-13 9z m-188-95c0-5-3-9-8-9l-30 0c-5 0-9 4-9 9l0 32c0 4 4 8 9 8l30 0c5 0 8-4 8-8z m141 0c0-5-4-9-9-9l-30 0c-5 0-9 4-9 9l0 32c0 4 4 8 9 8l30 0c5 0 9-4 9-8z m-71 0c0-5-4-9-8-9l-31 0c-4 0-8 4-8 9l0 32c0 4 4 8 8 8l31 0c4 0 8-4 8-8l0-32z m-70-130c0-4-3-8-8-8l-30 0c-5 0-9 4-9 8l0 32c0 5 4 8 9 8l30 0c5 0 8-3 8-8z m141 0c0-4-4-8-9-8l-30 0c-5 0-9 4-9 8l0 32c0 5 4 8 9 8l30 0c5 0 9-3 9-8z m-71 0c0-4-4-8-8-8l-31 0c-4 0-8 4-8 8l0 32c0 5 4 8 8 8l31 0c4 0 8-3 8-8l0-32z m-70 66c0-5-3-8-8-8l-30 0c-5 0-9 3-9 8l0 32c0 4 4 8 9 8l30 0c5 0 8-4 8-8z m141 0c0-5-4-8-9-8l-30 0c-5 0-9 3-9 8l0 32c0 4 4 8 9 8l30 0c5 0 9-4 9-8z m-71 0c0-5-4-8-8-8l-31 0c-4 0-8 3-8 8l0 32c0 4 4 8 8 8l31 0c4 0 8-4 8-8l0-32z m8-201c0-17-14-31-31-31-17 0-31 14-31 31 0 17 14 31 31 31 17 0 31-14 31-31z m5 42l-1 2-35 61-35-60-2-3c10 9 23 15 37 15 14 0 27-6 36-15z m4-79l3 2 60 35-60 35-3 1c9-10 15-22 15-36 0-14-6-27-15-37z m-77-8l2-3 35-60 35 60 1 2c-10-8-22-14-36-14-14 0-27 6-37 15z m-6 81l-2-1-60-35 60-35 2-1c-9 9-14 22-14 36 0 14 5 27 14 36z"/>
<glyph unicode="&#57496;" d="M238 447l0-382-211 0 0 382 211 0m16 27l-243 0c-6 0-11-4-11-8l0-420c0-4 5-8 11-8l243 0c6 0 11 4 11 8l0 420c0 4-5 8-11 8z m-159-81c0-4-4-7-8-7l-25 0c-4 0-8 3-8 7l0 27c0 4 4 7 8 7l25 0c4 0 8-3 8-7z m119 0c0-4-3-7-7-7l-26 0c-4 0-7 3-7 7l0 27c0 4 3 7 7 7l26 0c4 0 7-3 7-7z m-60 0c0-4-3-7-7-7l-26 0c-4 0-7 3-7 7l0 27c0 4 3 7 7 7l26 0c4 0 7-3 7-7z m-59-110c0-4-4-8-8-8l-25 0c-4 0-8 4-8 8l0 27c0 3 4 7 8 7l25 0c4 0 8-4 8-7z m119 0c0-4-3-8-7-8l-26 0c-4 0-7 4-7 8l0 27c0 3 3 7 7 7l26 0c4 0 7-4 7-7z m-60 0c0-4-3-8-7-8l-26 0c-4 0-7 4-7 8l0 27c0 3 3 7 7 7l26 0c4 0 7-4 7-7z m-59 56c0-4-4-7-8-7l-25 0c-4 0-8 3-8 7l0 27c0 4 4 7 8 7l25 0c4 0 8-3 8-7z m119 0c0-4-3-7-7-7l-26 0c-4 0-7 3-7 7l0 27c0 4 3 7 7 7l26 0c4 0 7-3 7-7z m-60 0c0-4-3-7-7-7l-26 0c-4 0-7 3-7 7l0 27c0 4 3 7 7 7l26 0c4 0 7-3 7-7z m6-172c0-14-11-26-26-26-15 0-26 12-26 26 0 15 11 27 26 27 15 0 26-12 26-27z m5 36l-1 2-30 52-30-52-1-2c8 8 19 13 31 13 12 0 23-5 31-13z m3-67l2 1 52 30-52 30-2 1c8-8 13-19 13-31 0-12-5-23-13-31z m-65-7l1-2 30-52 30 52 1 2c-8-8-19-13-31-13-12 0-23 5-31 13z m-5 69l-2-1-52-30 52-29 2-2c-8 9-13 19-13 31 0 12 5 23 13 31z m199-16l215 0 0-53-215 0z m0 90l215 0 0-52-215 0z m0-180l215 0 0-53-215 0z"/>
<glyph unicode="&#57497;" d="M384 330l-54 54-74-74-74 74-54-54 74-74-74-74 54-54 74 74 74-74 54 54-74 74z m-128 150c123 0 224-101 224-224 0-123-101-224-224-224-123 0-224 101-224 224 0 123 101 224 224 224m0 32c-141 0-256-115-256-256 0-141 115-256 256-256 141 0 256 115 256 256 0 141-115 256-256 256z"/>
<glyph unicode="&#57498;" d="M115 342l108 0 0-38-108 0z m0-83l108 0 0-39-108 0z m335 171l-164 0-30 81-28-81-166 0c-8 0-14-6-14-14l0-275c0-8 6-14 14-14l62 0-43-126 35 0 45 126 197 0 45-126 40 0-46 126 53 0c8 0 14 6 14 14l0 275c0 8-6 14-14 14z m-12-267l-362 0 0 232 362 0z m-177 196l139 0 0-156-139 0z"/>
<glyph unicode="&#57499;" d="M503 66l-68 117c-21 35-54 93-74 128l-45 78 0 61 21 0c10 0 19 8 19 18l0 24c0 10-9 18-19 18l-164 0c-10 0-18-8-18-18l0-24c0-10 8-18 18-18l22 0 0-64-44-75c-20-35-53-93-74-128l-68-117c-20-36-3-64 37-64l136 0c41 0 107 0 148 0l136 0c40 0 57 28 37 64z m-103-11l-93 0c-28 0-74 0-102 0l-93 0c-28 0-40 19-26 44l47 81c14 24 37 63 51 88l47 81c14 24 36 24 50 0l47-81c14-25 37-64 51-88l47-81c14-25 2-44-26-44z m-23 63l-26 44c-8 1-22-9-22-9 0 0-23 3-30 10-8 6-24 18-32 17-9-2-20-16-33-24-14-9-22 3-39 14-10 6-23 2-31-2l-29-50c-10-18-2-32 18-32l67 0c20 0 52 0 72 0l67 0c20 0 28 14 18 32z"/>
<glyph unicode="&#57500;" d="M258 510c-61 0-117-21-160-57-16-12-31-26-44-42l-22 10 0 0-14 7c-11 5-19-1-18-13l4-45c1-12 3-31 4-43 0 0 0 0 0-1l4-45c2-12 10-16 20-9l24 17 13 9c10 7 26 19 36 26l37 26c10 7 9 16-2 21l-18 8-10 5c28 32 66 55 110 63 4 1 7 1 11 2 1 0 1 0 2 0 7 1 14 1 21 1 35 0 69-9 98-25 59-33 98-97 98-169 0-107-87-195-194-195-95 0-174 68-191 158l-59-9c22-118 125-208 250-208 140 0 254 114 254 254 0 140-114 254-254 254z"/>
<glyph unicode="&#57501;" d="M258 382l-51 30-170 100-2-256-2-256 171 97 52 29 223 127z"/>
<glyph unicode="&#57502;" d="M163 349l-37 22-123 72-2-186-1-186 124 71 38 21 161 92z m176 6l-173 102 0-56 48-28 173-102 26-15-26-15-174-99-50-28 0-59 174 99 175 99z"/>
<glyph unicode="&#57503;" d="M256 16c-132 0-240 108-240 240 0 132 108 240 240 240 132 0 240-108 240-240 0-132-108-240-240-240z m0 452c-117 0-212-95-212-212 0-117 95-212 212-212 117 0 212 95 212 212 0 117-95 212-212 212z m4-62c-46 0-88-21-115-55l-4 2-4 2-12 5 0 0-10 5c-8 4-14-1-13-9l3-32c1-9 2-22 3-31 0 0 0 0 0 0l3-33c1-8 7-11 14-6l17 12 10 7c7 5 18 13 25 18l27 18c7 5 6 12-2 16l-12 6-9 4-6 2c22 22 52 36 85 36 65 0 118-52 118-117 0-65-53-117-118-117-32 0-61 13-83 34 0 0 0 0 0 1l-3 2-6 6c-5 5-11 6-14 3l-12-12c-2-2-2-4-2-7 5-6 11-12 17-18 27-26 63-42 103-42 83 0 150 67 150 150 0 83-67 150-150 150z"/>
<glyph unicode="&#57504;" d="M504 256l-174 157 0-84c-50-2-264-22-322-230 0 0 230 138 322 84l0-84z"/>
<glyph unicode="&#57505;" d="M4 86c0 0 0-1 0-1l81-81c0 0 1 0 1 0l1-1 6 0 400 0c9 0 16 7 16 16l0 474c0 9-7 16-16 16l-474 0c-9 0-16-7-16-16l0-406z m387-29c0-6-5-11-11-11l-158 0 0 87c0 3-2 5-4 5l-48 0c-3 0-5-2-5-5l0-87-30 0c-6 0-11 5-11 11l0 118c0 6 5 11 11 11l245 0c6 0 11-5 11-11z m-329 378c0 9 7 16 16 16l359 0c9 0 16-7 16-16l0-174c0-8-7-15-16-15l-359 0c-9 0-16 7-16 15z"/>
<glyph unicode="&#57506;" d="M370 229c57 0 103-46 103-102 0-56-46-102-103-102-57 0-103 46-103 102 0 56 46 102 103 102m0 25c-71 0-129-57-129-127 0-70 58-127 129-127 71 0 129 57 129 127 0 70-58 127-129 127z m62-119l-70 0 0 70c0 5-4 8-8 8-5 0-8-3-8-8l0-77c0 0 0 0 0 0 0-1 0-1 0-1 0-4 3-8 8-8l78 0c5 0 8 4 8 8 0 4-3 8-8 8z m-397 46l0 267 313 0 0-165c5 1 10 2 16 2 2 0 4-1 6-1l0 217c0 6-5 11-11 11l-335 0c-6 0-11-5-11-11l0-331c0-6 5-11 11-11l193 0c2 7 4 15 7 22l-189 0z m92 283l0 30 131 0 0-30m-126-37l44 0 0-43-44 0z m66 0l44 0 0-43-44 0z m67 0l43 0 0-43-43 0z m-199-61l44 0 0-43-44 0z m66 0l44 0 0-43-44 0z m66 0l44 0 0-43-44 0z m67 0l43 0 0-43-43 0z m-199-61l44 0 0-43-44 0z m66 0l44 0 0-43-44 0z m66 0l44 0 0-43-44 0z m67 0l43 0 0-43-43 0z m-199-60l44 0 0-43-44 0z m66 0l44 0 0-43-44 0z m66 0l44 0 0-43-44 0z"/>
<glyph unicode="&#57507;" d="M327 518c-107 0-194-87-194-194 0-39 12-77 34-109l-164-164c-7-7-11-15-12-24-1-10 2-19 8-25 5-6 12-8 20-8 11 0 21 4 29 12l163 163c33-25 74-39 116-39 107 0 194 87 194 194 0 107-87 194-194 194z m0-334c-77 0-140 63-140 140 0 78 63 141 140 141 78 0 141-63 141-141 0-77-63-140-141-140z"/>
<glyph unicode="&#57508;" d="M489 439l4 3-476 0 4-3z m-233-243l-257 183 0-300c0-5 4-9 8-9l498 0c4 0 8 4 8 9l0 301z m233 243l-468 0 235-167z"/>
<glyph unicode="&#57509;" d="M325 509c-104 0-188-84-188-187 0-38 12-74 33-106l-158-157c-6-7-11-16-12-24-1-10 2-18 8-24 5-5 12-8 20-8 10 0 20 4 28 12l156 157c33-24 72-38 113-38 103 0 187 84 187 188 0 103-84 187-187 187z m0-323c-75 0-136 61-136 136 0 74 61 135 136 135 74 0 135-61 135-135 0-75-61-136-135-136z m-4 127l86 0c5 0 9 4 9 9 0 5-4 9-9 9l-77 0 0 79c0 5-4 9-9 9-5 0-9-4-9-9l0-87c0 0 0 0 0-1 0 0 0 0 0 0 0-5 4-9 9-9z"/>
<glyph unicode="&#57510;" d="M435 190c-25 0-47-13-60-32l-226 54c0 3-1 6-1 9l149 112c12-6 24-11 38-11 41 0 74 33 74 74 0 41-33 74-74 74-40 0-73-33-73-74 0-7 1-13 3-19l-150-113c-11 7-24 11-38 11-41 0-74-33-74-74 0-40 33-73 74-73 25 0 47 12 60 31l226-54c5-35 35-63 72-63 41 0 74 33 74 74 0 41-33 74-74 74z"/>
<glyph unicode="&#57511;" d="M451 158l0-111-418 0 0 36c-9-4-14-7-14-8l-17-9 0-35c0-8 7-15 16-15l448 0c9 0 16 7 16 15l0 154z m31 123l-31 27-83 76 0-67-17-1c-41-1-236-18-310-189 58 30 168 82 251 82 27 0 50-5 67-16l9-5 0-60 83 76 31 27 28 25z m-449 184l418 0 0-111 31-27 0 154c0 8-7 15-16 15l-448 0c-9 0-16-7-16-15l0-360c9 23 19 44 31 62l0 282z"/>
<glyph unicode="&#57512;" d="M154 118l-23 81 345 1 34 164-404 73 0-237 0 0 23-94 4-14 343 0 0 26z m45-56c0-20-16-36-36-36-19 0-35 16-35 36 0 19 16 35 35 35 20 0 36-16 36-35z m275 1c0-19-16-35-36-35-19 0-35 16-35 35 0 20 16 36 35 36 20 0 36-16 36-36z m-426 423c-17 0-33-6-46-14l15-15c9 5 19 8 31 8 30 0 55-18 66-44l21 0c-12 37-46 65-87 65z"/>
<glyph unicode="&#57513;" d="M422 35l0 479-320 0 0-479-43 0 0-33 406 0 0 33z m-130 423l72 0 0-66-72 0z m0-96l72 0 0-66-72 0z m0-96l72 0 0-66-72 0z m-138 192l72 0 0-66-72 0z m0-96l72 0 0-66-72 0z m0-96l72 0 0-66-72 0z m72-231l0 101 72 0 0-101z"/>
<glyph unicode="&#57514;" d="M256 512c-141 0-256-115-256-256 0-141 115-256 256-256 141 0 256 115 256 256 0 141-115 256-256 256z m47-288c0-26-21-47-47-47-26 0-47 21-47 47 0 26 21 47 47 47 26 0 47-21 47-47z m-126 23l-101 128 29 29 129-101 0 0c-4 1-8 2-12 2-26 0-47-21-47-47 0-4 1-8 2-11z m143-130l-128 0 0 23 128 0z"/>
<glyph unicode="&#57515;" d="M400 236l-144-236-144 236z m0 40l-144 236-144-236z"/>
<glyph unicode="&#57516;" d="M480 480l0-448-448 0 0 448 448 0m16 32l-480 0c-9 0-16-7-16-16l0-480c0-9 7-16 16-16l480 0c9 0 16 7 16 16l0 480c0 9-7 16-16 16z m-86-413l-63 209-59-78-33 27-41-114-75 140-45-77-42 24 88 152 65-121 28 76 47-38 86 113 90-299z"/>
<glyph unicode="&#57517;" d="M504 505l-377 0 145-145-264-264 88-89 265 264 143-143z"/>
<glyph unicode="&#57518;" d="M448 65l0 290-112-111-203 203-69-68 204-204-110-110z"/>
<glyph unicode="&#57519;" d="M500 342l-26-8c-22 62-70 113-132 137l9 27c0 0-92 27-179 2l8-25c-63-22-114-70-139-131l-27 9c0 0-27-92-2-179l25 8c21-64 71-116 133-141l-9-27c0 0 92-27 179-2l-8 25c64 22 115 72 140 135l26-9c0 0 27 92 2 179z m-53-18l-76-24c-11 30-34 55-64 68l26 76c53-22 94-65 114-120z m-123-102l17-6c-11-22-29-39-52-48l-7 20c0 0-15-15-62 0l-5-16c-22 11-39 30-47 53l20 7c0 0-15 15 0 62l-15 5c10 21 28 37 50 45l7-20c0 0 15 15 62 0l6 16c21-10 37-28 46-50l-20-6c0 0 15-15 0-62z m-135 225l25-75c-30-12-55-34-69-63l-76 25c22 53 66 94 120 113z m-125-256l76 25c11-32 35-58 65-72l-25-76c-54 23-97 67-116 123z m259-126l-25 76c32 11 57 35 71 66l75-26c-21-54-66-97-121-116z"/>
<glyph unicode="&#57520;" d="M24 31c16-16 37-24 58-26 76-18 194 33 294 133 117 116 166 258 118 328-4 7-9 14-15 20-13 13-30 21-48 24l-100-100c2-18 10-35 24-48 12-13 27-20 43-24-23-42-55-86-96-126-41-42-87-75-130-98-4 15-12 29-23 41-14 14-31 22-48 24l-101-100c3-18 11-35 24-48z"/>
<glyph unicode="&#57521;" d="M88 448l128 0 0-384-128 0z m208 0l128 0 0-384-128 0z"/>
<glyph unicode="&#57522;" d="M507 412l-13 0c0 0-1 0-1 0l-11 0-33 0c-1 0-1 0-1 0l-14 0c0 0 0 0-1 0l-50 0 0 94c0 2-1 3-3 3 0 0-1 0-1 0l0 1-42-38-129-117 129-116 42-38 0 1c0 0 1 0 1 0 2 0 3 1 3 3l0 95 124 0 0 0c3 0 5 2 5 4l0 104c0 2-2 4-5 4z m-502-312l13 0c0 0 1 0 1 0l44 0c1 0 1 0 1 0l14 0c0 0 0 0 1 0l50 0 0-94c0-2 1-3 3-3 0 0 1 0 1 0l0-1 42 38 129 117-129 116-42 38 0-1c0 0-1 0-1 0-2 0-3-1-3-3l0-95-124 0 0 0c-3 0-5-2-5-4l0-104c0-2 2-4 5-4z"/>
<glyph unicode="&#57523;" d="M230 461l-178 0-1-175 23-22c-1-14-1-28-1-42 0-85 22-171 65-171 43 0 65 86 65 171 0 85-22 171-65 171-14 0-25-9-35-23-1 3-1 6-1 10 0 1 0 3 0 4 2 17 17 31 35 31 9 0 18-3 29-13 30-30 51-118 51-187 0-29-2-59-7-85l73-72 178 175z m-92-81c29 0 52-71 52-158 0-87-23-158-52-158-29 0-53 71-53 158 0 10 1 20 1 30l87-86c2 15 3 31 3 49 0 68-14 113-26 132-4-1-8-2-13-2-4 0-8 1-11 2-6 2-11 6-15 10 8 15 17 23 27 23z"/>
<glyph unicode="&#57524;" d="M224 10c0-6-4-10-10-10l-204 0c-6 0-10 4-10 10l0 204c0 6 4 10 10 10l204 0c6 0 10-4 10-10z m0 288c0-6-4-10-10-10l-204 0c-6 0-10 4-10 10l0 204c0 6 4 10 10 10l204 0c6 0 10-4 10-10z m288-288c0-6-4-10-10-10l-204 0c-6 0-10 4-10 10l0 204c0 6 4 10 10 10l204 0c6 0 10-4 10-10z m0 288c0-6-4-10-10-10l-204 0c-6 0-10 4-10 10l0 204c0 6 4 10 10 10l204 0c6 0 10-4 10-10z"/>
<glyph unicode="&#57525;" d="M479 479l0-446-446 0 0 446 446 0m16 32l-478 0c-9 0-16-7-16-16l0-478c0-9 7-16 16-16l478 0c9 0 16 7 16 16l0 478c0 9-7 16-16 16z m-63-143l-100-129-36 29-39-109-75 139-53-91-28 16 82 141 68-126 30 83 46-37 83 110z"/>
<glyph unicode="&#57526;" d="M256 480c123 0 224-101 224-224 0-123-101-224-224-224-123 0-224 101-224 224 0 123 101 224 224 224m0 32c-141 0-256-115-256-256 0-141 115-256 256-256 141 0 256 115 256 256 0 141-115 256-256 256z m-154-215l308 0 0-82-308 0z"/>
<glyph unicode="&#57527;" d="M474 465l-47 47-65-65-65 65-47-47 65-65-65-65 47-47 65 65 65-65 47 47-65 65z m-334-414c0-28-23-51-51-51-28 0-51 23-51 51 0 28 23 51 51 51 28 0 51-23 51-51z m-92 176l-10 0 0-52 10 0c89 0 161-73 161-162l0-12 43 0 10 1 0 10c0 119-96 215-214 215z m0 106l-10 0 0-54 10 0c149 0 271-120 270-268l0-10 45 0 10 1 0 10c0 177-146 321-325 321z"/>
<glyph unicode="&#57528;" d="M215 165l-44 43-61-60-60 60-44-43 61-61-61-60 44-44 60 60 61-60 44 44-61 60z m298 23l-70 45 0 0-49 31 0 0-69 45 0 0-89 58c3 16 4 33 0 51-14 64-77 105-142 92-65-14-106-78-92-143 14-64 78-105 142-92 18 4 33 12 47 22l88-57-53-84 70-45 53 83 49-31-54-83 70-45 54 83 0 0 45 70z m-382 149c-31-7-61 13-67 44-7 30 13 60 43 67 31 6 61-13 68-44 6-30-13-60-44-67z"/>
<glyph unicode="&#57529;" d="M410 323l-26 0 0 1-39 0 0-1-178 0 0 53c0 0 0 1 0 1 2 50 41 91 89 91 24 0 46-10 62-27l30 30c-23 25-55 41-92 41-69 0-125-56-128-125 0 0 0-1 0-1l0-63-26 0c-3 0-6-3-6-6l0-310c0-4 3-7 6-7l308 0c3 0 6 3 6 6l0 311c0 3-3 6-6 6z m-107-236l-95 0 17 85c-10 9-17 22-17 36 0 27 22 48 48 48 26 0 48-21 48-48 0-15-7-28-17-37z"/>
<glyph unicode="&#57530;" d="M253 401c-7 39-40 68-80 68-45 0-81-36-81-81 0-39 28-72 65-80 20 41 54 74 96 93z m22-112c-21-18-33-44-33-73 0-6 0-12 1-19l65 65c-9 11-21 20-33 27z m-134-23c-18 7-33 17-45 32-56-13-95-74-96-120l138 0c-2 13-4 25-4 38 0 17 3 34 7 50z m198 123c-95 0-173-78-173-173 0-40 14-76 36-105l0 0 0 0c32-41 81-68 137-68 96 0 173 78 173 173 0 95-77 173-173 173z m-129-173c0 71 58 130 129 130 28 0 53-9 74-24l-180-180c-15 21-23 46-23 74z m129-130c-28 0-55 10-76 26l181 180c15-21 25-47 25-76 0-72-58-130-130-130z"/>
<glyph unicode="&#57531;" d="M437 303l-116 0 0 149-131 0 0-150-115 0 45-49 136-151 136 152z m-181-201l-256 0 0-42 512 0 0 42z"/>
<glyph unicode="&#57532;" d="M471 416l0 71-68 0 0-71-54 0 0 71-69 0 0-71-48 0 0 71-69 0 0-71-54 0 0 71-68 0 0-71-41 0 0-320 41 0 0-71 68 0 0 71 54 0 0-71 69 0 0 71 48 0 0-71 69 0 0 71 54 0 0-71 68 0 0 71 41 0 0 320z m-352-138l-2 24c0 0 0 0 0 1-1 6-2 16-2 22l-3 24c0 7 4 10 10 7l7-3 0 0 12-6c25 31 64 51 107 51 51 0 96-28 120-69l-25-17c-18 33-54 56-95 56-31 0-59-13-79-34l8-4 9-4c6-3 7-8 1-11l-19-14c-5-4-14-10-19-14l-7-5-13-9c-5-3-10-1-10 5z m195-7l-16-18-50-56-50 56-16 18 42 0 0 55 48 0 0-55z m61-104l-8 3 0 0-11 5c-26-30-64-50-106-50-51 0-95 28-119 69l24 16c19-33 54-55 95-55 30 0 58 13 77 33l-7 4 0 0-10 4c-5 3-6 8-1 12l20 13c5 4 13 10 19 14l6 5 13 8c5 4 10 2 10-4l3-24c0 0 0 0 0-1 0-6 1-16 2-22l2-24c1-6-4-9-9-6z"/>
<glyph unicode="&#57533;" d="M376 358c0 71-54 128-120 128-66 0-120-57-120-128 0-71 54-129 120-129 66 0 120 58 120 129z m-6-142c-26-37-67-61-114-61-46 0-87 24-113 60-84-21-142-118-143-189l512 0c-1 72-58 169-142 190z"/>
<glyph unicode="&#57534;" d="M489 446l-206 0 23-33 174 0 0-31 34 0 0 40c0 13-11 24-25 24z m-244-11c-1 1-1 1-2 2l-1 2-1-1c-4 4-10 6-16 6l-199 0c-15 0-28-12-28-28l0-39c0 0 1 0 1 0l-1 0 0-311 508 0 0 284-203 0z m152-346l-290 0c1 41 34 96 81 108 15-21 38-34 64-34 27 0 50 14 65 34 47-12 80-67 80-108z m-145 116c-37 0-68 32-68 73 0 40 31 73 68 73 38 0 68-33 68-73 0-41-30-73-68-73z"/>
<glyph unicode="&#57535;" d="M257 315c0 46-36 84-79 84-44 0-79-38-79-84 0-47 35-85 79-85 43 0 79 38 79 85z m173 32c0 38-28 68-64 68-35 0-64-30-64-68 0-38 29-68 64-68 36 0 64 30 64 68z m72-185c0 39-31 90-75 101-14-19-36-32-61-32-24 0-46 13-60 32-24-6-44-25-58-46-17-21-42-35-70-35-31 0-58 15-75 39-55-14-93-77-94-124l337 0c-1 20-8 44-21 65z"/>
<glyph unicode="&#57536;" d="M280 395c0 53-40 96-89 96-50 0-90-43-90-96 0-53 40-96 90-96 49 0 89 43 89 96z m-47-178c-3 6-4 12-4 18 0 7 2 14 5 20-13-7-28-11-43-11-35 0-65 18-85 45-62-16-105-88-106-141l206 0 0 30c0 18 11 33 27 39z m272-33l-25 0c-3 9-6 18-11 26l18 18c3 3 3 7 0 10l-29 29c-3 3-8 3-11 0l-17-18c-8 5-17 8-26 11l0 25c0 4-4 7-8 7l-40 0c-5 0-8-3-8-7l0-25c-9-3-17-6-25-11l-18 18c-3 3-8 3-11 0l-29-29c-2-3-2-7 0-10l18-18c-4-8-8-17-10-26l-25 0c-4 0-8-3-8-7l0-41c0-4 4-8 8-8l25 0c2-9 5-17 10-25l-18-17c-3-3-3-8 0-11l29-29c3-3 8-3 11 0l17 18c8-5 17-9 26-11l0-25c0-4 4-7 8-7l40 0c5 0 8 3 8 7l0 25c9 2 18 6 26 10l17-18c3-3 8-3 11 0l29 29c3 3 3 8 0 11l-18 18c5 8 8 16 11 25l24 0c5 0 8 4 8 8l0 41c0 4-3 7-7 7z m-129-61c-18 0-34 15-34 34 0 18 16 33 34 33 19 0 34-15 34-33 0-19-15-34-34-34z"/>
<glyph unicode="&#57537;" d="M225 233c18 18 48 18 67 0 14-14 17-35 10-52 6 4 13 8 18 14 34 34 34 88 0 122-34 34-88 34-122 0-34-34-34-88 0-122 5-5 11-9 17-13-7 17-4 37 10 51z m28-124c-86 0-169 46-246 138l-7 8 7 10c4 5 106 138 252 138 86 0 169-46 246-138l7-8-7-10c-4-5-106-138-252-138z m-215 147c68-78 141-118 215-118 111 0 197 89 221 118-68 78-141 118-215 118-111 0-197-89-221-118z"/>
<glyph unicode="&#57538;" d="M139 302c0-3-2-5-5-5-3 0-5 2-5 5 0 3 2 5 5 5 3 0 5-2 5-5z m-16 12c0-2-2-5-5-5-3 0-5 3-5 5 0 3 2 5 5 5 3 0 5-2 5-5z m6 20c0-3-2-5-5-5-3 0-5 2-5 5 0 3 2 5 5 5 3 0 5-2 5-5z m50 89l-111 0c0-29 27-52 56-52 29 0 55 23 55 52z m57 89l-228 0c-5 0-8-4-8-10l0-11c0-5 3-10 8-10l2 0c1-64 22-114 56-137-33-22-53-68-56-129l-2 0c-5 0-8-4-8-10l0-11c0-5 3-10 8-10l81 0 124 124c-8 16-18 28-31 36 34 23 53 71 54 137 4 1 8 5 8 10l0 11c-1 6-4 10-8 10z m-80-158l-28-9 28-10c11-4 21-12 29-22l-41-41-13 16c-3 4-9 4-13 0l-22-27c-3-4-9-11-13-16l-22-26c-1-1-1-3-2-4l-28 0c3 62 26 107 61 119l29 10-29 10c-36 12-60 58-62 122l186 0c-2-65-24-110-60-122z m344-121l-125 125c-17 16-44 16-61 0l-205-206c-17-17-17-44 0-61l91-91 127 0 173 172c16 17 16 44 0 61z m-280-210l-102 100 110 109 146-144-65-66z"/>
<glyph unicode="&#57539;" d="M506 76l-224 387c-14 25-38 25-52 0l-224-387c-14-25-2-46 26-46l448 0c28 0 40 21 26 46z m-269 256l47 0 0-61-13-97-22 0-12 97z m48-226l-49 0 0 49 49 0z"/>
<glyph unicode="&#57540;" d="M256 460c-66 0-120-54-120-120 0-66 54-120 120-120 66 0 120 54 120 120 0 66-54 120-120 120z m0-223c-57 0-103 46-103 103 0 57 46 103 103 103 57 0 103-46 103-103 0-57-46-103-103-103z m172 75l-20 29 19 28-27 21 9 33-33 10-3 34-34 0-13 31-33-12-23 26-26-22-30 17-18-29-34 6-8-34-34-5 4-34-31-16 15-31-24-25 24-25-14-31 31-16-4-34 34-5 8-33 1 0-34-137 53 16 39-39 25 103 11-138 51 36 56-28-15 206 25-1 2 35 32 10-9 34z m-172-105c-73 0-133 59-133 133 0 73 60 133 133 133 73 0 133-60 133-133 0-74-60-133-133-133z"/>
<glyph unicode="&#57541;" d="M1 495l0-478c0-9 7-16 16-16l478 0c9 0 16 7 16 16l0 478c0 9-7 16-16 16l-478 0c-9 0-16-7-16-16z m336-33c0-14-11-26-25-26-14 0-26 12-26 26 0 14 12 25 26 25 14 0 25-11 25-25z m71 0c0-14-11-26-25-26-14 0-25 12-25 26 0 14 11 25 25 25 14 0 25-11 25-25z m72 0c0-14-12-26-26-26-14 0-25 12-25 26 0 14 11 25 25 25 14 0 26-11 26-25z m-447-43l446 0 0-386-446 0z m30-29l382 0 0-49-382 0z m0-80l108 0 0-246-108 0z m141 0l241 0 0-246-241 0z"/>
<glyph unicode="&#57542;" d="M498 339l0 0c0 0-5 28-43 77 0 0 0 0 0 0 0 1 0 1 0 1 0 0 0 0 0 0-1 0-1 0-1 1 0 0 0 0 0 0-1 1-2 2-3 3 0 1-1 1-1 1l0 0c-47 55-116 90-194 90-141 0-256-115-256-256 0-141 115-256 256-256 141 0 256 115 256 256 0 29-5 57-14 83z m-236-215c10 10 13 13 26-2 12-16 0-32-5-48-4-16-6-37 4-49 2-2 3-4 3-6-102-12-172 41-188 55-1 31 103 2 114 4 14 2 35 37 46 46z m-203 147c-10 20 6 38 10 54 3 13-29 19-40 20 11 21 50 91 83 106 25-9 58-73 69-90 14-19 0-44 3-61 4-17 21-22 52-27 31-5-49-81-60-85-12-3-25 0-51-10-26-10-42 21-49 46-7 26-7 28-17 47z m293-143c-6 10-3 39 12 48 15 9 49 3 47 17-1 14-37 38-39 48-2 10 20 61 15 92-6 30-28 60-13 69 15 9 13 54-6 58-16 3-5 10 2 13 21-15 123-94 123-192 0-102-23-143-66-189-5 4-12 11-24 21-19 16-45 5-51 15z"/>
<glyph unicode="&#57543;" d="M126 101c0 89 66 161 162 164l0-39 50 31 53 31-52 32-51 31 0-40c0 0-5 0-5 0-91 0-166-73-166-164 0-17 4-34 9-50 0 2 0 3 0 4z m-126 395l0-480c0-9 7-16 16-16l480 0c9 0 16 7 16 16l0 480c0 9-7 16-16 16l-480 0c-9 0-16-7-16-16z m337-33c0-14-11-26-25-26-14 0-26 12-26 26 0 14 12 25 26 25 14 0 25-11 25-25z m72 0c0-14-11-26-25-26-14 0-26 12-26 26 0 14 12 25 26 25 14 0 25-11 25-25z m72 0c0-14-12-26-26-26-14 0-25 12-25 26 0 14 11 25 25 25 14 0 26-11 26-25z m-449-44l448 0 0-387-448 0z"/>
<glyph unicode="&#57544;" d="M62 64c0 138 66 251 258 256l0-62 73 49 78 49-75 49-76 49 0-62c0 0-13 0-14 0-141 0-261-115-261-256 0-27 7-53 15-78 0 2 2 4 2 6z"/>
<glyph unicode="&#57545;" d="M236 426c-12-11-12-31 0-42 1-2 3-4 6-5-3 6-2 13 3 18 7 6 17 6 24 0 4-5 6-12 3-18 2 1 5 3 7 5 11 11 11 31 0 42-12 12-32 12-43 0z m199-381l-84 467-192 0-82-467c-20-6-37-12-50-18l15-27c37 20 121 33 214 33 93 0 177-13 214-33l15 27c-13 6-30 12-50 18z m-266 363c1 2 37 49 88 49 30 0 59-17 86-49l3-3-3-3c-1-2-37-49-88-49-30 0-59 17-86 49l-3 3z"/>
<glyph unicode="&#57546;" d="M438 338l-99-59 55-94 44 0c0 0 66 5 60 59z m19-176l-118 0 0 19-56-85 56-84 0 28 72 0 0 0c21 2 29 20 29 20l72 129c-27-26-55-27-55-27z m-214-118l0 115-109 0-23-38c0 0-29-59 20-81z m-158 74l23 39 1 1 36 61 16-9-44 91-101-5 24-15-37-62 1 0c-9-19 2-35 2-35l75-127c-9 36 4 61 4 61z m-4 233l102-53 51 96-23 38c0 0-39 53-81 20z m142 109l24-39 0 0 38-61-16-10 101-3 42 92-23-15-38 61 0 0c-13 17-33 15-33 15l-147-7c36-10 52-33 52-33z"/>
<glyph unicode="&#57547;" d="M135 93l80 0c3 0 6 3 6 6l0 210c0 3-3 6-6 6l-159 0c-3 0-6-3-6-6l0-33 18 0 0 14c0 2 2 4 5 4l125 0c3 0 5-2 5-4l0-149c0-3-2-5-5-5l-63 0 1-11c6 0 12-5 12-12 0-7-6-12-12-12z m-29 166l-101 0c-3 0-5-2-5-5l0-156c0-3 2-5 5-5l101 0c3 0 5 2 5 5l0 156c0 3-2 5-5 5z m-70-10l41 0c3 0 7-3 7-7 0-4-4-7-7-7l-41 0c-4 0-7 3-7 7 0 4 3 7 7 7z m19-150c-5 0-9 4-9 9 0 5 4 9 9 9 5 0 10-4 10-9 0-5-5-9-10-9z m42 30c0-2-1-3-3-3l-77 0c-2 0-3 1-3 3l0 95c0 2 1 3 3 3l77 0c2 0 3-1 3-3l0-95z m-11 251c0 1 0 2 0 3 1 3 4 5 7 5l304 0 0 0 24 0c3 0 6-2 7-5 0-1 1-2 1-3l0-199c0-1-1-2-1-3-1-3-4-5-7-5l-24 0 0 0-151 0 0-33 217 0c0 1 0 1 0 2l0 266c0 3-1 5-2 6-2 3-5 5-8 5l-391 0c-4 0-7-2-8-5-2-1-3-3-3-6l0-75 35 0z m160-254l0-31 249 0c9 0 15 7 17 15l0 0 0 16z"/>
<glyph unicode="&#57548;" d="M288 295c0-18-14-32-32-32-18 0-32 14-32 32 0 17 14 32 32 32 18 0 32-15 32-32z m170 217l-404 0c-9 0-16-7-16-16l0-480c0-9 7-16 16-16l404 0c9 0 16 7 16 16l0 480c0 9-7 16-16 16z m-33-480c-25-20-60-16-80 9l-65 97c-8-1-16-2-24-2-88 0-159 71-159 159 0 88 71 159 159 159 88 0 159-71 159-159 0-44-17-83-46-112l62-66-1-1c2-1 3-3 5-4 19-25 15-61-10-80z m-5 69l-99 106c-9 12-26 14-37 5-12-9-14-26-5-38l83-123c13-17 37-20 54-7 16 13 19 38 6 54-1 1-2 2-3 3z"/>
<glyph unicode="&#57550;" d="M130 390c0-7-5-12-12-12l-106 0c-7 0-12 5-12 12l0 108c0 7 5 13 12 13l106 0c7 0 12-6 12-13z m0-377c0-6-5-12-12-12l-106 0c-7 0-12 6-12 12l0 109c0 7 5 12 12 12l106 0c7 0 12-5 12-12z m0 190c0-7-5-12-12-12l-106 0c-7 0-12 5-12 12l0 109c0 6 5 12 12 12l106 0c7 0 12-6 12-12z m191 187c0-7-5-12-12-12l-106 0c-7 0-12 5-12 12l0 108c0 7 5 13 12 13l106 0c7 0 12-6 12-13z m0-377c0-6-5-12-12-12l-106 0c-7 0-12 6-12 12l0 109c0 7 5 12 12 12l106 0c7 0 12-5 12-12z m0 190c0-7-5-12-12-12l-106 0c-7 0-12 5-12 12l0 109c0 6 5 12 12 12l106 0c7 0 12-6 12-12z m191 187c0-7-5-12-12-12l-106 0c-7 0-12 5-12 12l0 108c0 7 5 13 12 13l106 0c7 0 12-6 12-13z m0-377c0-6-5-12-12-12l-106 0c-7 0-12 6-12 12l0 109c0 7 5 12 12 12l106 0c7 0 12-5 12-12z m0 190c0-7-5-12-12-12l-106 0c-7 0-12 5-12 12l0 109c0 6 5 12 12 12l106 0c7 0 12-6 12-12z"/>
<glyph unicode="&#57551;" d="M495 398l-35 0c0 0 0 0 0 0l0 6c0 8-8 16-16 16l-55 0c-9 0-16-8-16-16l0-6-356 0c-9 0-16-8-16-16l0-274c0-8 7-16 16-16l478 0c9 0 16 8 16 16l0 274c0 8-7 16-16 16z m-380-52c0-9-7-16-16-16l-63 0c-9 0-16 7-16 16l0 13c0 9 7 16 16 16l63 0c9 0 16-7 16-16l0-13z m143-207c-60 0-109 48-109 108 0 60 49 109 109 109 60 0 109-49 109-109 0-60-49-108-109-108z m68 108c0-37-30-68-68-68-37 0-68 31-68 68 0 38 31 68 68 68 38 0 68-30 68-68z"/>
<glyph unicode="&#57552;" d="M415 383c0 0 0 0-1 0-3 15-16 26-32 26-1 0-2 0-2-1-7 18-24 31-43 31-6 0-11-1-16-3-8 9-19 14-32 14-2 0-4 0-6 0-5 35-36 62-72 62-41 0-74-33-74-73 0-3 0-5 1-7 0 0-1 0-1 0-16 0-29-12-32-27-29-2-52-26-52-55 0-31 25-55 55-55l307 0c24 0 44 19 44 44 0 24-20 44-44 44z m-104-244l0 117-110 0 0-117-70 0 125-139 125 139z"/>
<glyph unicode="&#57553;" d="M32 31l0 449 449 0 0-107 33-31 0 170-514 0 0-514 113 0 0 33z m415 202c2-2 2-6 0-8l-208-208c-3-3-6-3-9 0l-63 63c-2 2-2 6 0 8l208 208c3 3 6 3 9 0z m31 23c-2-2-6-2-8 0l-63 64c-3 2-3 5 0 8l32 32c2 2 5 2 8 0l63-64c3-2 3-6 0-8z m-331-198c1 2 4 3 6 1l50-54c2-2 1-4-2-5l-50 0c-2-1-4 1-3 4z"/>
<glyph unicode="&#57554;" d="M488 466l-92 0c0 1 0 2 0 3l0 18c0 15-12 26-27 26l-227 0c-15 0-27-11-27-26l0-18c0-1 0-2 1-3l-92 0c-5 0-8-5-8-10l0-21c0-5 3-10 8-10l464 0c5 0 8 5 8 10l0 21c0 5-3 10-8 10z m-123-1c0-1 0-2-1-3l-217 0c0 1-1 2-1 3l0 16c0 5 4 8 8 8l203 0c4 0 8-3 8-8z m95-78l-408 0c-4 0-7-3-8-6l1-6 53-359 0-3c1-8 8-14 16-14l288 0c7 0 13 4 15 9 1 2 1 4 1 7l0 3 49 357 1 5c-1 4-4 7-8 7z m-289-307l-22 0c-5 0-10 4-10 9l-39 229c0 5 4 9 10 9l34 0c5 0 10-4 10-9l27-229c0-5-5-9-10-9z m111 10c0-6-5-10-11-10l-24 0c-7 0-12 4-12 10l-21 239c0 5 5 10 11 10l65 0c6 0 11-5 11-10z m92-1c0-5-4-9-10-9l-21 0c-6 0-10 4-10 9l23 229c0 5 4 9 10 9l40 0c6 0 10-4 10-9z"/>
<glyph unicode="&#57555;" d="M463 140l0 268c0 3-1 5-3 7-1 2-4 4-8 4l-393 0c-4 0-7-2-9-4-1-2-2-4-2-7l0-268c0-1 0-1 0-1l414 0c0 0 1 0 1 1z m-35 39c0-1 0-2-1-3-1-3-3-5-6-5l-24 0 0 0-283 0 0 0-24 0c-3 0-6 2-7 5 0 1 0 2 0 3l0 201c0 1 0 2 0 3 1 3 4 5 7 5l24 0 0 0 283 0 0 0 24 0c3 0 5-2 6-5 1-1 1-2 1-3l0-201z m-428-54l0-17 0 0c2-9 9-15 17-15l478 0c8 0 15 6 16 15l1 0 0 17z m312 229l-1 0-36 0-22-41-22 41-37 0 0 0 40-75-40-74 37 0 22 40 21-40 37 0-40 74z"/>
<glyph unicode="&#57556;" d="M413 512l-314 0c-8 0-14-7-14-14l0-484c0-8 6-14 14-14l314 0c8 0 14 6 14 14l0 484c0 7-6 14-14 14z m-218-31l126 0c12 0 22-10 22-22 0-12-10-22-22-22l-126 0c-12 0-22 10-22 22 0 12 10 22 22 22z m61-464c-16 0-28 13-28 28 0 16 12 28 28 28 15 0 28-12 28-28 0-15-13-28-28-28z m129 92c0-5-5-10-11-10l-236 0c-6 0-11 5-11 10l0 294c0 5 5 10 11 10l236 0c6 0 11-5 11-10z m-42 257l0 1-54 0-33-61-33 61-54 0 0-1 60-111-60-110 55 0 32 60 32-60 55 0-60 110z"/>
<glyph unicode="&#57557;" d="M4 86c0 0 0-1 0-1l81-81c0 0 1 0 1 0l1-1 6 0 400 0c9 0 16 7 16 16l0 474c0 9-7 16-16 16l-474 0c-9 0-16-7-16-16l0-406z m387-29c0-6-5-11-11-11l-158 0 0 87c0 3-2 5-4 5l-48 0c-3 0-5-2-5-5l0-87-30 0c-6 0-11 5-11 11l0 118c0 6 5 11 11 11l245 0c6 0 11-5 11-11z m-329 378c0 9 7 16 16 16l359 0c9 0 16-7 16-16l0-174c0-8-7-15-16-15l-359 0c-9 0-16 7-16 15z"/>
<glyph unicode="&#57558;" d="M498 512l-498 0 0-512 512 0 0 512z m-258-480l-208 0 0 423 208 0z m240 0l-207 0 0 423 207 0z"/>
<glyph unicode="&#57348;" d="M282 140l232 232-84 84-232-232-116 116-84-84 200-200 0 0 0 0 37 37 47 47z"/>
<glyph unicode="&#57363;" d="M106 512l0-512 300 0 0 512z m37-49l226 0 0-39-226 0z m0-69l226 0 0-39-226 0z m208-112l-37 0c-10 0-19 8-19 19 0 10 9 18 19 18l37 0c11 0 19-8 19-18 0-11-8-19-19-19z"/>
<glyph unicode="&#57382;" d="M460 506l-460 0 0-500 512 0 0 500z m-412-155l0 106 416 0 0-106z m0-193l416 0 0-103-416 0z m416 44l-416 0 0 106 416 0 0-103z m-319-83l-34 0c-10 0-18-8-18-17 0-10 8-18 18-18l34 0c10 0 18 8 18 18 0 9-8 17-18 17z m0 156l-34 0c-10 0-18-8-18-18 0-9 8-17 18-17l34 0c10 0 18 8 18 17 0 10-8 18-18 18z m0 146l-34 0c-10 0-18-7-18-17 0-10 8-18 18-18l34 0c10 0 18 8 18 18 0 10-8 17-18 17z"/>
<glyph unicode="&#57559;" d="M486 388l0-359-359 0 0 88-26 0 0-114 411 0 0 411-131 0 0-26z m-393-94l130-129 122 121-130 130 78 78-293 15 15-293z"/>
<glyph unicode="&#57560;" d="M199 319c-23-23-31-57-21-88l1-2 110 109-3 1c-9 3-18 5-28 5-22 0-44-9-59-25z m98-137l4 2c8 5 14 9 18 14 25 24 32 61 19 92l-1 3-53-54 1-1c1-1 1-1 2-2 1 0 2-1 3-1 12-13 16-32 9-49z m-186-22l22 23-1 1c-30 19-58 44-86 75 24 28 107 113 213 113 18 0 36-3 54-8l1 0 25 24-3 1c-26 9-52 14-77 14-143 0-241-130-246-135l-7-10 8-10c30-36 62-65 95-87z m387 109c-30 36-62 65-95 87l-1 1-23-23 1-1c30-19 59-44 86-75-24-28-107-113-213-113-18 0-36 3-54 8l-1 0-25-24 3-1c26-9 52-14 77-14 144 0 245 134 246 135l7 10z m-66 141l-23 23-1 1-331-331-1-1 23-23 1-1 331 331z"/>
<glyph unicode="&#57561;" d="M187 305l0-146 138 0 0 146 88 0-157 174-157-174z m241-93l0-127-344 0 0 127-52 0 0-179 52 0 0 0 344 0 0 0 52 0 0 179z"/>
<glyph unicode="&#57562;" d="M417 480l-322 0c-7 0-12-6-12-13l0-422c0-7 5-13 12-13l322 0c6 0 12 6 12 13l0 422c0 7-6 13-12 13z m-161-433c-13 0-24 11-24 25 0 13 11 24 24 24 14 0 25-11 25-24 0-14-11-25-25-25z m137 81c0-5-5-9-10-9l-254 0c-5 0-9 4-9 9l0 302c0 5 4 9 9 9l254 0c5 0 10-4 10-9z"/>
<glyph unicode="&#57564;" d="M398 286l0 55-111 111-173 0 0-166-82 0 0-188 48 0 0-38 352 0 0 38 48 0 0 188-82 0z m-305-94c0 8 7 14 15 14l28 0c8 0 15-6 15-14 0-8-7-14-15-14l-28 0c-8 0-15 6-15 14z m47 234l136 0 96-96 0-44-232 0z"/>
<glyph unicode="&#57565;" d="M325 332l0 147-138 0 0-147-88 0 157-173 157 173z m103-120l0-127-344 0 0 127-52 0 0-179 52 0 0 0 344 0 0 0 52 0 0 179z"/>
<glyph unicode="&#57566;" d="M243 203c-22 0-40 18-40 40 0 22 18 39 40 39l0 172c-117 0-211-95-211-211 0-117 94-211 211-211 116 0 211 94 211 211l-172 0c0-22-17-40-39-40z m53 249c80-12 144-76 156-156l-122 0c-7 15-19 27-34 34l0 122m-27 28l0-171c22 0 40-18 40-40l171 0c0 117-94 211-211 211z"/>
<glyph unicode="&#57567;" d="M284 290c0-15-13-28-28-28-15 0-28 13-28 28 0 15 13 28 28 28 15 0 28-13 28-28z m149 190l-354 0c-8 0-14-6-14-14l0-420c0-8 6-14 14-14l354 0c8 0 14 6 14 14l0 420c0 8-6 14-14 14z m-29-420c-21-18-53-14-70 8l-57 85c-7-1-14-2-21-2-77 0-139 62-139 139 0 77 62 139 139 139 77 0 139-62 139-139 0-38-15-73-40-98l54-58 0 0c1-2 2-3 3-4 18-22 14-53-8-70z m-5 61l-86 92c-8 11-23 12-33 4-10-8-12-22-4-33l73-108c11-14 32-17 47-5 15 11 17 32 6 47-1 1-2 1-3 2z"/>
<glyph unicode="&#57568;" d="M370 393l-222 0-116-82 0-192 448 0 0 192z m-282-163l336 0 0-29-336 0z"/>
<glyph unicode="&#57569;" d="M257 249c-43 0-78-35-78-78 0-44 35-79 78-79 43 0 78 35 78 79 0 43-35 78-78 78z m73-82c0-4-3-7-7-7l-67 0c-3 0-7 3-7 7 0 0 1 0 1 0 0 0-1 0-1 1l0 66c0 4 4 7 7 7 4 0 7-3 7-7l0-61 60 0c4 0 7-3 7-6z m62 146l-23 0 0 55c0 0 0 1 0 1-2 61-51 109-112 109-60 0-110-48-111-109-1 0-1-1-1-1l0-55-22 0c-3 0-6-2-6-6l0-271c0-3 3-6 6-6l269 0c3 0 5 3 5 6l0 271c0 4-2 6-5 6z m-213 46c0 1 0 1 0 1 2 44 36 80 78 80 42 0 77-36 78-80 0 0 0 0 0-1l0-46-156 0z m141-269l-1-1 0 0c-17-13-38-21-62-21-56 0-102 46-102 103 0 56 46 102 102 102 57 0 103-46 103-102 0-33-16-63-40-81z"/>
<glyph unicode="&#57570;" d="M444 396l0 62-60 0 0-62-47 0 0 62-60 0 0-62-42 0 0 62-60 0 0-62-47 0 0 62-60 0 0-62-36 0 0-280 36 0 0-62 60 0 0 62 47 0 0-62 60 0 0 62 42 0 0-62 60 0 0 62 47 0 0-62 60 0 0 62 36 0 0 280z m-166-191l0-19c0-1-1-2-2-2l0 0-58 0 0-45c0 0-1-1-1-1-1 0-1 0-1 0l0 0-19 17-60 55 60 54 19 18 0-1c0 0 0 0 1 0 0 0 1 0 1-1l0-44 23 0c1 0 1 0 1 0l6 0c1 0 1 0 1 0l20 0c1 0 1 0 1 0l6 0c1 0 2-1 2-2l0-29z m37 43l-19-17 0 0c0 0 0 0-1 0 0 0-1 0-1 1l0 44-23 0c-1 0-1 0-1 0l-6 0c0 0-1 0-1 0l-15 0-5 0c-1 0-1 0-1 0l-6 0c-1 0-2 1-2 2l0 48c0 1 1 2 2 2l0 0 58 0 0 45c0 0 1 1 1 1 1 0 1 0 1 0l0 0 19-17 60-55z"/>
<glyph unicode="&#57571;" d="M393 480l-274 0c-7 0-13-6-13-13l0-422c0-7 6-13 13-13l274 0c7 0 13 6 13 13l0 422c0 7-6 13-13 13z m-190-27l110 0c11 0 19-9 19-19 0-11-8-20-19-20l-110 0c-11 0-19 9-19 20 0 10 8 19 19 19z m53-406c-14 0-25 11-25 25 0 13 11 24 25 24 14 0 25-11 25-24 0-14-11-25-25-25z m113 81c0-5-4-9-10-9l-206 0c-6 0-10 4-10 9l0 256c0 5 4 9 10 9l206 0c6 0 10-4 10-9z"/>
<glyph unicode="&#57572;" d="M473 431l-434 0c-4 0-7-3-7-7l0-264c0-4 3-8 7-8l201 0 0-38-70 0c-4 0-7-4-7-8l0-18c0-4 3-7 7-7l172 0c3 0 7 3 7 7l0 18c0 4-4 8-7 8l-70 0 0 38 201 0c4 0 7 4 7 8l0 264c0 4-3 7-7 7z m-27-240c0-3-3-6-6-6l-368 0c-3 0-6 3-6 6l0 202c0 3 3 6 6 6l368 0c3 0 6-3 6-6z"/>
<glyph unicode="&#57573;" d="M39 309c0 0 0-1 0-1l4-39c1-10 8-14 17-8l21 15 11 8c9 6 23 16 31 22l32 22c9 6 8 15-1 19l-16 7 0 0-13 6c33 34 79 56 129 56 67 0 126-37 156-92l40 28c-39 67-112 113-196 113-70 0-134-33-175-83l-19 9 0 0-12 5c-10 4-17 0-16-11l4-39c1-10 2-27 3-37z m434-107c0 0 0 0 0 0l-4 39c-1 10-8 14-17 8l-20-15-12-8c-8-6-22-15-30-21l-32-23c-9-6-8-14 2-18l15-7 12-6c-32-34-77-55-127-55-67 0-124 37-154 91l-40-28c39-67 111-112 194-112 70 0 132 32 173 83l20-9 0 0 12-6c9-4 16 1 15 11l-4 39c-1 10-2 26-3 37z m-166 62l-45 0 0 46c0 2-2 5-5 5-3 0-5-3-5-5l0-51c0 0 0 0 0 0 0 0 0 0 0-1 0-3 2-5 5-5l50 0c3 0 5 2 5 5 0 3-2 6-5 6z m-51 83c-50 0-91-41-91-91 0-50 41-91 91-91 21 0 40 7 55 19l0 0 1 0c21 16 35 43 35 72 0 50-41 91-91 91z m0-161c-39 0-70 31-70 70 0 39 31 70 70 70 39 0 70-31 70-70 0-39-31-70-70-70z"/>
<glyph unicode="&#57574;" d="M210 428l167 0 0-344-167 0 0-52 218 0 0 448-218 0z m79-161l-65 0 0 66c0 4-3 8-7 8-5 0-8-4-8-8l0-72c0-1 0-1 0-1 0 0 0 0 0-1 0-4 3-7 8-7l72 0c4 0 8 3 8 7 0 5-4 8-8 8z m-74 121c-72 0-131-59-131-132 0-73 59-132 131-132 31 0 58 10 81 27l0 0 0 1c31 24 51 61 51 104 0 73-59 132-132 132z m0-233c-55 0-100 45-100 101 0 56 45 101 100 101 56 0 101-45 101-101 0-56-45-101-101-101z"/>
<glyph unicode="&#57575;" d="M437 154l0 235c0 2 0 4-2 6-1 2-4 4-7 4l-344 0c-3 0-6-2-7-4-2-2-2-4-2-6l0-235c0 0 0 0 0-1l362 0c0 1 0 1 0 1z m-30 35c0-1 0-2 0-3-1-2-4-4-6-4l-21 0 0 0-248 0 0 0-21 0c-2 0-5 2-6 4 0 1 0 2 0 3l0 175c0 1 0 2 0 3 1 3 4 5 6 5l21 0 0 0 248 0 0 0 21 0c2 0 5-2 6-5 0-1 0-2 0-3l0-175z m-375-48l0-15 0 0c1-7 7-13 15-13l418 0c8 0 14 6 15 13l0 0 0 15z"/>
<glyph unicode="&#57576;" d="M178 320l-146 0 0-137 146 0 0-89 174 157-174 157z m81 104l167 0 0-345-167 0 0-52 218 0 0 448-218 0z"/>
<glyph unicode="&#57577;" d="M186 189l141 0 0-82-141 0z m-154 0l129 0 0-82-129 0z m320 0l128 0 0-82-128 0z m-84 114l128 0 0-89-128 0z m-153 0l128 0 0-89-128 0z m-83 0l58 0 0-89-58 0z m389 0l59 0 0-89-59 0z m-69 102l128 0 0-77-128 0z m-166 0l141 0 0-77-141 0z m-154 0l129 0 0-77-129 0z"/>
<glyph unicode="&#57578;" d="M256 149l-36-36-6-6 84 0-6 6z m-171 40l-53 0 0-82 129 0 0 6-48 48z m267-75l0-7 128 0 0 82-53 0-28-28z m44 109l0 66-33-33z m-281 67l0-68 34 34z m-83 13l58 0 0-89-58 0z m389 0l59 0 0-89-59 0z m-69 102l0-7 47-47 23-23 58 0 0 77z m-96-42l36 36 6 6-84 0 6-6z m-95 36l0 0 0 6-129 0 0-77 58 0 23 23z m208-78l-48 48-65-66-65 66-48-48 66-65-66-65 48-48 65 66 65-66 48 48-66 65z"/>
<glyph unicode="&#57579;" d="M322 363l-132 0c-3 0-6-3-6-6l0-202c0-3 3-6 6-6l132 0c3 0 6 3 6 6l0 202c0 3-3 6-6 6z m-91-13l52 0c5 0 9-4 9-9 0-5-4-9-9-9l-52 0c-5 0-10 4-10 9 0 5 5 9 10 9z m25-194c-6 0-12 5-12 12 0 6 6 12 12 12 6 0 12-6 12-12 0-7-6-12-12-12z m54 39c0-3-2-4-5-4l-98 0c-3 0-5 1-5 4l0 122c0 3 2 4 5 4l98 0c3 0 5-1 5-4z m-287 118c0-1 0-1 0-1l4-42c1-11 9-15 19-9l22 16 12 9c9 6 24 17 33 23l35 25c9 6 8 15-2 20l-16 7 0 0-14 7c35 36 84 59 138 59 72 0 135-39 167-98l43 30c-42 72-120 121-210 121-76 0-143-35-188-89l-21 9 0 0-13 6c-10 5-17 0-16-11l4-42c1-11 2-29 3-40z m466-115c0 0 0 0 0 0l-4 42c-1 11-9 15-18 9l-22-16-13-9c-9-6-23-17-32-23l-35-24c-9-6-8-16 2-20l16-8 14-6c-34-36-83-59-137-59-71 0-133 40-165 98l-43-30c42-72 119-120 208-120 75 0 142 34 186 88l21-9 0 0 13-6c10-5 17 1 16 12l-3 41c-2 11-3 29-4 40z"/>
<glyph unicode="&#57580;" d="M125 480l0-448 262 0 0 448z m32-43l198 0 0-34-198 0z m0-60l198 0 0-34-198 0z m182-98l-32 0c-9 0-17 7-17 16 0 9 8 16 17 16l32 0c9 0 17-7 17-16 0-9-8-16-17-16z"/>
<glyph unicode="&#57581;" d="M308 294l1 21c1 7 2 14 5 21l-117-83-197 140 0-230c0-3 3-6 7-6l282 0 0 106c0 13 8 25 19 31z m67 145l-358 0 180-128z m133-172l-15 0 0 0-23 0 0 0-107 0 0 31c0 0 0 1 0 1 1 30 25 54 53 54l0 26c-41 0-74-33-76-74 0 0 0-1 0-1l0-38-15 0c-2 0-4-1-4-3l0-186c0-2 2-4 4-4l183 0c2 0 4 2 4 4l0 186c0 2-2 4-4 4z m-53-159l-78 0 14 68c-8 7-14 18-14 30 0 21 18 38 39 38 22 0 39-17 39-38 0-12-5-23-14-30z m-2 229l19 18c-14 15-34 24-56 24l0-26c15 0 28-6 37-16z"/>
<glyph unicode="&#57582;" d="M282 140l232 232-84 84-232-232-116 116-84-84 200-200 0 0 0 0 37 37 47 47z"/>
<glyph unicode="&#57583;" d="M187 305l0-146 138 0 0 146 88 0-157 174-157-174z m241-93l0-127-344 0 0 127-52 0 0-179 52 0 0 0 344 0 0 0 52 0 0 179z"/>
<glyph unicode="&#57586;" d="M383 248c18 0 35-4 50-11 48 104 36 193 36 193-168-28-215 47-216 50-2-3-48-78-217-50 0 0-32-239 217-388 9 6 18 12 27 18-12 19-19 42-19 66 0 67 54 122 122 122z m-130 13l0-172c-86 51-129 115-151 172l151 0 0 173c1-3 37-62 170-39 0 0 8-60-20-134z m182-125l-47 0 0 48c0 3-3 5-6 5-3 0-5-2-5-5l0-53c0 0 0 0 0 0 0 0 0-1 0-1 0-3 2-5 5-5l53 0c3 0 6 2 6 5 0 3-3 6-6 6z m-53 87c-53 0-96-42-96-95 0-53 43-96 96-96 21 0 42 7 58 20l0 0 0 0c23 18 37 45 37 76 0 53-43 95-95 95z m0-168c-41 0-74 32-74 73 0 40 33 73 74 73 40 0 73-33 73-73 0-41-33-73-73-73z"/>
<glyph unicode="&#57587;" d="M438 438c-142-24-181 39-182 42-1-3-40-66-182-42 0 0-27-201 182-326 209 125 182 326 182 326z m-55-142l-127 0 0-145c-72 43-108 97-127 145l127 0 0 145c1-2 32-52 144-33 0 0 6-50-17-112z m15-117l0-105-284 0 0 105-42 0 0-147 368 0 0 147z"/>
<glyph unicode="&#57588;" d="M478 429c-173-29-220 48-222 51-2-3-49-80-222-51 0 0-32-245 222-397 254 152 222 397 222 397z m-68-173l-154 0 0-177c-87 53-132 119-154 177l154 0 0 177c1-3 39-63 175-40 0 0 8-62-21-137z"/>
<glyph unicode="&#57589;" d="M311 320c0 52-39 94-88 94-48 0-87-42-87-94 0-52 39-94 87-94 49 0 88 42 88 94z m-9-94c-19-27-49-45-83-45-34 0-55 18-74 44-61-15-109-95-109-148l254 0 59 107c-18 23-19 35-47 42z m182 50l-1 1-49 0-29-55-30 55-48 0-1-1 54-100-53-99 49 0 29 54 29-54 49 0-53 99z"/>
<glyph unicode="&#57563;" d="M434 477l-402 0 0-437 448 0 0 437z m-360-136l0 93 364 0 0-93z m0-169l364 0 0-90-364 0z m364 39l-364 0 0 93 364 0 0-90z m-279-73l-30 0c-9 0-15-6-15-15 0-8 6-15 15-15l30 0c9 0 15 7 15 15 0 9-6 15-15 15z m0 137l-30 0c-9 0-15-7-15-16 0-8 6-15 15-15l30 0c9 0 15 7 15 15 0 9-6 16-15 16z m0 128l-30 0c-9 0-15-7-15-15 0-9 6-16 15-16l30 0c9 0 15 7 15 16 0 8-6 15-15 15z"/>
<glyph unicode="&#57354;" d="M18 367l226 0c7 0 12 6 12 12l0 95c0 7-5 12-12 12l-226 0z m0-170l464 0c7 0 12 5 12 11l0 96c0 6-5 12-12 12l-464 0z m0-171l345 0c7 0 12 5 12 12l0 95c0 6-5 12-12 12l-345 0z"/>
<glyph unicode="&#57399;" d="M77 9l-22 23-30 33-18 20c-2 1-4 1-5 1-1-1-2-2-3-3l1-76c-1-4 1-6 5-5l9 0 61-1c4 2 5 5 2 8z m433 409l-89 90c-3 3-9 3-12 0l-17-17-28-28c-3-3-3-8 0-11l28-28 62-62c3-3 8-3 11 0l45 45c3 3 3 8 0 11z m-89-88l-29 29-60 60c-3 3-8 3-12 0l-4-5-108-107-76-76-105-105c-2-3-2-6-1-9 0-1 0-2 1-3l56-55 33-34c3-3 8-3 11 0l81 81 108 107 76 77 29 28c3 4 3 9 0 12z"/>
<glyph unicode="&#57549;" d="M325 332l0 147-138 0 0-147-88 0 157-173 157 173z m103-120l0-127-344 0 0 127-52 0 0-179 52 0 0 0 344 0 0 0 52 0 0 179z"/>
<glyph unicode="&#57585;" d="M397 250c19 0 38-4 57-13 55 115 42 217 42 217-189-32-240 52-243 55-3-3-55-87-243-55 0 0-36-268 243-435 9 7 22 13 32 19-13 23-23 45-23 74 0 77 61 138 135 138z m-144 16l0-192c-96 57-144 128-170 192l170 0 0 192c0-4 41-71 192-45 0 0 9-67-23-151l-169 0z m38-157c0-58 48-106 106-106 25 0 48 10 64 23 25 19 41 51 41 83 0 57-48 105-105 105-61 4-106-44-106-105z m106-80c-45 0-80 35-80 80 0 16 6 32 16 45l112-112c-16-7-32-13-48-13z m80 80c0-19-7-35-16-48l-112 112c13 9 29 16 48 16 45 3 80-35 80-80z"/>
<glyph unicode="&#57584;" d="M398 179l0-105-284 0 0 105-42 0 0-147 368 0 0 147z m-142 201c-19 0-36-6-50-16l118-118c10 14 16 31 16 50 0 46-37 84-84 84z m-84-84c0-47 37-85 84-85 18 0 35 6 48 16l-117 117c-10-14-15-30-15-48z m266 142c-142-24-181 39-182 42-1-3-40-66-182-42 0 0-27-201 182-326 209 125 182 326 182 326z m-113-231l-1 0 0 0c-19-15-42-24-68-24-62 0-112 51-112 113 0 62 50 112 112 112 62 0 112-50 112-112 0-36-17-69-43-89z"/>
<glyph unicode="&#57590;" d="M197 180c15-10 36-18 59-18 57 0 103 47 103 103 0 23-8 44-18 58z m59 188c-57 0-103-46-103-103 0-22 7-42 14-56l143 143c-12 9-32 16-54 16z m252 85c-196-33-250 55-252 58-2-3-56-91-252-58 0 0-37-279 252-452 289 173 252 452 252 452z m-252-325c-44 0-83 21-109 54l0 0 0 0c-18 23-28 52-28 83 0 76 61 138 137 138 76 0 137-62 137-138 0-76-61-137-137-137z"/>
</font>
</defs>
</svg>
